<?xml version="1.0" encoding="utf-8"?>
<!-- Generator: Adobe Illustrator 24.0.1, SVG Export Plug-In . SVG Version: 6.00 Build 0)  -->
<svg version="1.1" id="Layer_1" xmlns="http://www.w3.org/2000/svg" xmlns:xlink="http://www.w3.org/1999/xlink" x="0px" y="0px"
	 viewBox="0 0 915.7 1000" style="enable-background:new 0 0 915.7 1000;" xml:space="preserve">
<style type="text/css">
	.st0{opacity:0.5;}
	.st1{fill:#FFFFFF;}
	.st2{fill:#FAFAFA;}
	.st3{fill:#B2AAF2;}
	.st4{opacity:0.4;fill:#B0AFFD;enable-background:new    ;}
	.st5{fill:#D2D2FF;}
	.st6{opacity:0.5;fill:#D2D2FF;enable-background:new    ;}
	.st7{fill:#5148A5;}
	.st8{fill:#B0AFFD;}
	.st9{fill:#00B050;}
	.st10{opacity:0.5;fill:#00B050;enable-background:new    ;}
	.st11{opacity:0.3;}
	.st12{fill:none;stroke:#B0AFFD;stroke-width:1.1267;stroke-miterlimit:10;}
	.st13{fill:#7762EF;}
	.st14{opacity:0.4;fill:#FAFAFA;enable-background:new    ;}
	.st15{fill:#ED9C80;}
	.st16{fill:#3A3A3A;}
	.st17{fill:#2D24A3;}
	.st18{fill:#170D54;}
	.st19{fill:#2C1E56;}
	.st20{fill:#EAEAEA;}
	.st21{opacity:0.5;fill:#3D38A0;enable-background:new    ;}
	.st22{fill:#FFBE9D;}
	.st23{opacity:0.5;fill:#5F52DD;enable-background:new    ;}
	.st24{opacity:0.3;fill:#ED9C80;enable-background:new    ;}
	.st25{fill:#FE7F9A;}
	.st26{fill:#FFE7C5;}
	.st27{fill:#FFB127;}
	.st28{opacity:0.5;fill:#FAFAFA;enable-background:new    ;}
	.st29{opacity:0.1;}
	.st30{fill:#EFEFFF;}
	.st31{fill:#FFCC99;}
	.st32{fill:#201D93;}
	.st33{opacity:0.5;fill:#FFB127;enable-background:new    ;}
	.st34{fill:#D8836C;}
</style>
<g>
	<g>
		<g class="st0">
			<path class="st1" d="M824.7,459c0,197-159.7,356.9-356.9,356.9S110.9,656,110.9,459c0-75.5,23.3-145.5,63.3-203.1
				c64.5-92.9,171.9-153.8,293.6-153.8C665,102.1,824.7,261.8,824.7,459z"/>
			<g>
				<g>
					<path class="st2" d="M780.5,442.6c0,47.9-8.5,95.8-25.8,140.4c-17.2,44.6-42.8,86-75.5,121.1s-72,63.9-115.9,83.6
						c-43.8,19.7-91.7,30-139.8,30.2s-96.2-9.7-140.2-29.2s-84.2-47.9-117.1-83.2c-32.9-35.1-59-76.9-76.5-121.7
						C72.3,539,63.3,490.7,63.1,442.4C63.3,394.1,72,346,89.7,301c17.5-44.8,43.4-86.6,76.5-121.7c32.9-35.3,73-63.7,117.1-83.2
						c44-19.5,92.3-29.4,140.2-29.2c48.1,0.2,96,10.6,139.8,30.2c43.8,19.7,83.2,48.5,115.9,83.6s58.2,76.5,75.5,121.1
						C771.9,346.8,780.5,394.7,780.5,442.6z M780.5,442.6c-0.2-47.9-8.9-95.6-26.4-140.2c-17.2-44.6-43-85.8-75.7-120.7
						s-72.2-63.1-115.9-82.4c-43.6-19.3-91.3-29-139-28.8c-47.7,0.2-95.2,10.3-138.4,30c-43.4,19.5-82.4,48.1-114.6,82.8
						C138.2,218,112.7,259,95.6,303.4c-17,44.2-25.6,91.7-25.6,139c0,47.5,8.5,94.8,25.6,139.2c17,44.2,42.4,85.2,74.9,120.1
						c32.3,34.7,71.2,63.3,114.6,82.8c43.2,19.5,90.7,29.8,138.4,30s95.2-9.5,139-28.8c43.6-19.3,83.4-47.5,115.9-82.4
						c32.7-34.9,58.4-76.1,75.7-120.7C771.5,538.1,780.3,490.4,780.5,442.6z"/>
				</g>
			</g>
			<g>
				<g>
					<path class="st1" d="M841.5,457c0,46.5-7.7,92.9-24.3,136.6c-16.4,43.6-41.8,83.8-74.5,117.3c-32.5,33.5-72.6,59.7-116.3,76.9
						c-43.6,17.2-90.7,24.8-137.4,23.7c-46.7-1.2-93.3-11.4-135.9-30.6c-21.3-9.5-41.6-21.3-60.5-35.1
						c-18.9-13.6-36.3-29.2-51.9-46.5c-31.2-34.5-55.4-75.5-70.4-119.7c-15.2-44-21.7-90.9-20.3-137.6s10.8-93.1,28.2-136.6
						c8.7-21.7,19.3-42.6,31.9-62.5c12.6-19.7,27-38.3,42.8-55.4c32.1-34.1,70.8-62.1,113.8-81s90.1-28,137.2-26.8
						c46.9,1.2,93.5,12.4,135.5,33.5c42,20.9,79.3,50.5,109.6,86.2c30.2,35.5,53.8,76.7,69.2,120.7C834,364,841.7,410.5,841.5,457z
						 M840.9,457c-0.2-46.3-8.1-92.7-24.3-136.1s-40.2-83.8-70.8-118.5c-30.6-34.5-67.6-63.3-109.2-83.2
						c-10.3-5.1-20.9-9.3-31.9-13.4c-10.8-3.9-21.7-7.3-32.9-9.9c-22.3-5.5-45.2-8.5-68.2-8.9c-22.9-0.6-46.1,1.4-68.6,5.9
						s-44.4,11.4-65.5,20.5c-42.2,18.3-80.3,45.4-112,78.9s-56.8,72.8-74.3,115.5c-17.4,42.6-27.4,88.5-29.4,134.5
						s3.9,92.7,18.7,136.8c14.8,43.8,38.3,84.8,69.8,118.9c15.6,17,33.1,32.5,51.9,45.9c18.9,13.4,39.2,24.8,60.3,33.9
						c42.5,18,88.5,27.5,134.6,28.2c23.1,0.4,46.1-1.4,68.8-5.3c22.7-3.9,44.8-10.1,66.3-18.5c43-16.4,82.4-42,115.2-74.3
						c32.9-32.5,58.8-71.8,75.9-114.8c8.5-21.5,14.8-43.8,19.1-66.8C838.9,503.4,840.9,480.3,840.9,457z"/>
				</g>
			</g>
		</g>
		<g>
			<g>
				<g>
					
						<ellipse transform="matrix(0.1602 -0.9871 0.9871 0.1602 42.6212 395.0952)" class="st3" cx="253.5" cy="172.5" rx="2.8" ry="2.8"/>
				</g>
				<g>
					<circle class="st3" cx="716.5" cy="320.6" r="2.8"/>
				</g>
				<g>
					<circle class="st3" cx="197.1" cy="320.6" r="2.8"/>
				</g>
				<g>
					<circle class="st3" cx="640.3" cy="169.5" r="2.8"/>
				</g>
				<g>
					<circle class="st3" cx="212.1" cy="546.6" r="2.8"/>
				</g>
				<g>
					<circle class="st3" cx="769.3" cy="501" r="2.8"/>
				</g>
			</g>
			<g>
				<g>
					<g>
						<path class="st3" d="M404.3,156.9c-0.6,0-1-0.4-1-1v-11.2c0-0.6,0.4-1,1-1s1,0.4,1,1v11.2
							C405.3,156.5,404.7,156.9,404.3,156.9z"/>
					</g>
					<g>
						<path class="st3" d="M409.8,151.4h-11.2c-0.6,0-1-0.4-1-1s0.4-1,1-1h11.2c0.6,0,1,0.4,1,1S410.4,151.4,409.8,151.4z"/>
					</g>
				</g>
				<g>
					<g>
						<path class="st3" d="M780.5,415c-0.6,0-1-0.4-1-1v-11c0-0.6,0.4-1,1-1s1,0.4,1,1v11.2C781.5,414.6,781.1,415,780.5,415z"/>
					</g>
					<g>
						<path class="st3" d="M785.9,409.5h-11.2c-0.6,0-1-0.4-1-1s0.4-1,1-1h11.2c0.6,0,1,0.4,1,1C787,409.1,786.5,409.5,785.9,409.5z
							"/>
					</g>
				</g>
				<g>
					<g>
						<path class="st3" d="M722.4,615.6c-0.6,0-1-0.4-1-1v-11.2c0-0.6,0.4-1,1-1s1,0.4,1,1v11.2C723.4,615,723,615.6,722.4,615.6z"
							/>
					</g>
					<g>
						<path class="st3" d="M727.9,610h-11.2c-0.6,0-1-0.4-1-1s0.4-1,1-1h11.2c0.6,0,1,0.4,1,1C728.9,609.5,728.5,610,727.9,610z"/>
					</g>
				</g>
				<g>
					<g>
						<path class="st3" d="M126.1,433.8c-0.6,0-1-0.4-1-1v-11.2c0-0.6,0.4-1,1-1s1,0.4,1,1v11.2
							C127.1,433.2,126.5,433.8,126.1,433.8z"/>
					</g>
					<g>
						<path class="st3" d="M131.6,428.2h-11.2c-0.6,0-1-0.4-1-1s0.4-1,1-1h11.2c0.6,0,1,0.4,1,1
							C132.6,427.7,132.2,428.2,131.6,428.2z"/>
					</g>
				</g>
			</g>
		</g>
	</g>
	<g>
		<g>
			<ellipse id="XMLID_390_" class="st4" cx="450.1" cy="824.6" rx="224.2" ry="9.3"/>
			<g>
				<path class="st5" d="M670.5,811c0.2,0.2,0.6-13,20.3-24.8c20.1-12.6,62.1-8.3,68-21.3c6.3-13.8-20.3-12-31-23.1
					c-11-11.4-14.6-16.4,1.4-18.9c15.8-2,25.6-2.8,26.2-15.8c0.6-13.2,26.2-5.5,39.8-14.4c14-8.9,7.3-22.3-18.1-22.9
					c-25,0-25.8-4.3-18.3-7.7c7.3-3.4,29.4-8.9,20.5-16c-9.1-7.3-23.3-2-15.4-10.1c7.7-8.1,25.6-13.4,17.5-23.1
					c-7.9-9.9-29.8-10.1-43.6,13.6c-13.4,23.7-17.9,30.2-30,32.3c-11.8,2.2-22.3-11.2-36.9-6.7c-14.6,4.7-12.6,18.5-4.5,28
					c8.3,9.5,21.9,28.4,12.6,36.1c-8.9,7.7-18.7-4.9-31-7.7c-13.8-3.2-30,7.9-18.1,27.6c12.6,19.5,32.5,35.3,30.6,78.5
					C663.6,813.1,667,812,670.5,811z"/>
				<path class="st6" d="M640.9,720.1c0.2-0.2,0.8-0.2,1,0s25.4,24.8,34.3,54.2c1-2.6,1.8-5.5,2.8-8.1l0,0
					c9.1-25.4,18.7-47.1,28-65.5c-1.8-2.6-17-22.7-37.5-41c-0.4-0.2-0.4-0.8,0-1c0.2-0.4,0.8-0.4,1,0c19.5,17.2,34.3,36.3,37.3,40.6
					c1.4-2.8,2.8-5.5,4.3-8.1c0-0.2,0.2-0.4,0.4-0.6c6.5-12.4,13-22.9,19.1-32.1c0-0.2,0.2-0.4,0.4-0.6l0,0
					c21.1-32.1,37.1-45.2,37.3-45.4c0.4-0.2,0.8-0.2,1,0.2s0.2,0.8-0.2,1s-15.4,12.8-35.5,42.8c19.3-9.7,39.6-8.3,39.8-8.3
					c0.4,0,0.8,0.4,0.6,0.8c0,0.4-0.4,0.8-0.8,0.6c-0.2,0-21.9-1.4-41.4,9.5c-5.9,8.9-12,19.1-18.5,31c35.5-9.9,72.8-6.9,73.2-6.9
					s0.8,0.4,0.6,0.8c0,0.4-0.4,0.8-0.8,0.6c-0.4,0-38.6-3-74.1,7.3c-10.8,20.1-21.9,44.4-32.5,73.7c25-8.3,63.5-6.3,63.9-6.3
					s0.8,0.4,0.6,0.8c0,0.4-0.4,0.8-0.8,0.6c-0.4,0-39.8-2-64.5,6.5c-5.1,14.2-9.9,29.4-14.6,46.1c-0.2,0.4-0.4,0.6-0.8,0.6l0,0
					c-0.4-0.2-0.6-0.6-0.6-1c3.7-12.8,7.3-24.8,11.2-35.9c-8.1-29.8-34.1-55.2-34.5-55.4C640.5,720.7,640.5,720.3,640.9,720.1z"/>
			</g>
			<g id="XMLID_23_">
				<g>
					<path class="st5" d="M264.1,636.1c3.2-105.3-47.5-209.6-132.3-272.3l1.6-2.2C219,424.7,270.2,530,266.9,636.1H264.1
						L264.1,636.1z"/>
				</g>
				<g id="XMLID_35_">
					<g>
						<path class="st5" d="M149.8,376.6c-6.7-13.2-18.1-23.7-31.7-29.4c-3.2-1.4-7.3-2.4-10.3-0.6c-0.8,0.4-1.6,1.2-2,2
							c-0.6,1.4,0.2,3,1.2,4.5c4.9,6.9,13,10.8,20.9,13.6C135.8,369.5,141.5,372.8,149.8,376.6"/>
					</g>
					<g>
						<path class="st5" d="M171.4,397.5c-11.4-9.5-26-14.6-40.8-14.4c-3.7,0-7.7,0.6-9.9,3.4c-0.6,0.8-1,1.8-1,2.6
							c0.2,1.6,1.6,2.8,2.8,3.7c7.3,4.5,16.2,4.9,24.6,4.3C155.7,396.5,162.2,397.3,171.4,397.5"/>
					</g>
					<g>
						<path class="st5" d="M197.1,426.7c-9.9-10.8-24.1-17.9-38.8-19.3c-3.7-0.4-7.7-0.2-10.1,2.2c-0.6,0.6-1.2,1.6-1.2,2.6
							c0,1.6,1.2,2.8,2.4,3.9c6.7,5.3,15.4,6.7,23.9,7.3C181.7,423.9,188,425.5,197.1,426.7"/>
					</g>
					<g>
						<path class="st5" d="M218,458.4c-9.9-10.8-24.1-17.9-38.8-19.3c-3.7-0.4-7.7-0.2-10.1,2.2c-0.6,0.6-1.2,1.6-1.2,2.6
							c0,1.6,1.2,2.8,2.4,3.9c6.7,5.3,15.4,6.7,23.9,7.3C202.6,455.5,208.9,457.2,218,458.4"/>
					</g>
					<g>
						<path class="st5" d="M240.3,503.6c-8.9-11.8-22.1-20.1-36.5-23.1c-3.5-0.8-7.5-1-10.3,1.2c-0.8,0.6-1.4,1.4-1.6,2.4
							c-0.2,1.6,0.8,3,2,4.1c6.1,5.9,14.6,8.3,23.1,9.7C225.3,499.4,231.4,501.4,240.3,503.6"/>
					</g>
					<g>
						<path class="st5" d="M253.3,538.1c-7.7-11.4-20.1-20.3-34.1-25c-3.5-1.2-7.5-2-10.3-0.4c-0.8,0.4-1.6,1-1.8,1.8
							c-0.4,1.4,0.6,2.6,1.6,3.9c5.5,5.9,13.8,9.1,21.9,11.6C238.7,532.2,244.6,534.9,253.3,538.1"/>
					</g>
					<g>
						<path class="st5" d="M180.7,407.5c5.9-14,6.5-30.4,1.8-45.2c-1.2-3.7-2.8-7.5-6.3-9.1c-1-0.4-2-0.6-2.8-0.2
							c-1.4,0.6-2.2,2.2-2.6,3.9c-2,8.5,0.2,17.7,3.2,26.2C176.8,391.4,178.1,398.1,180.7,407.5"/>
					</g>
					<g>
						<path class="st5" d="M199.8,430.8c8.9-12.2,13.6-28,12.6-43.6c-0.2-3.9-1-8.1-3.9-10.3c-0.8-0.6-1.8-1-2.8-1
							c-1.6,0.2-2.6,1.6-3.4,3.2c-4.1,7.7-4.1,17.2-3.2,26.2C200,414.2,199.6,421.1,199.8,430.8"/>
					</g>
					<g>
						<path class="st5" d="M220.9,463.9c11.2-10.1,18.9-24.8,21.1-40.2c0.6-3.9,0.6-8.1-1.8-11c-0.6-0.8-1.6-1.4-2.4-1.4
							c-1.6-0.2-3,1-4.1,2.4c-5.5,6.7-7.5,16-8.3,25C224.3,447.6,222.5,454.1,220.9,463.9"/>
					</g>
					<g>
						<path class="st5" d="M243.4,508.3c8.7-12.4,13-28.2,11.6-43.8c-0.4-3.9-1.2-8.1-4.3-10.1c-0.8-0.6-1.8-1-2.8-0.8
							c-1.6,0.2-2.6,1.8-3.5,3.2c-3.9,7.9-3.7,17.2-2.6,26.2C243.2,491.9,243,498.6,243.4,508.3"/>
					</g>
					<g>
						<path class="st5" d="M254.3,542.8c13.4-7.1,24.3-19.5,30-33.9c1.4-3.5,2.6-7.7,0.8-11c-0.4-0.8-1.2-1.8-2-2
							c-1.4-0.6-3.2,0.4-4.5,1.4c-7.1,5.3-11.2,13.8-14.2,22.3C261.6,527.8,258.4,533.9,254.3,542.8"/>
					</g>
				</g>
			</g>
			<g id="XMLID_37_">
				<g>
					<path class="st5" d="M643.1,661.7c-22.7-102.9,7.5-214.9,79.1-292.2l-2-1.8c-72.2,77.9-102.9,190.9-79.9,294.6L643.1,661.7z"/>
				</g>
				<g id="XMLID_38_">
					<g>
						<path class="st5" d="M706.8,385.5c4.1-14.2,13.4-26.8,25.8-34.9c3-2,6.7-3.7,10.1-2.6c1,0.2,1.8,0.8,2.4,1.6
							c0.8,1.4,0.2,3-0.4,4.7c-3.4,7.7-10.8,13-18.1,17.5C719.4,376,714.5,380.3,706.8,385.5"/>
					</g>
					<g>
						<path class="st5" d="M689.6,409.9c9.3-11.4,22.9-19.3,37.3-21.7c3.7-0.6,7.7-0.8,10.3,1.6c0.8,0.6,1.4,1.4,1.4,2.4
							c0.2,1.6-1,3-2.2,4.1c-6.3,5.7-15,7.7-23.3,8.7C704.8,406.2,698.7,408.1,689.6,409.9"/>
					</g>
					<g>
						<path class="st5" d="M669.9,443.6c7.9-12.4,20.3-21.9,34.5-26.2c3.4-1,7.5-1.6,10.6,0.4c0.8,0.6,1.6,1.4,1.8,2.2
							c0.4,1.6-0.6,3-1.6,4.3c-5.5,6.5-14,9.5-22.1,11.6C684.5,437.9,678.6,440.5,669.9,443.6"/>
					</g>
					<g>
						<path class="st5" d="M655.1,478.5c7.9-12.4,20.3-21.9,34.5-26.2c3.4-1,7.5-1.6,10.6,0.4c0.8,0.6,1.6,1.4,1.8,2.2
							c0.4,1.6-0.6,3-1.6,4.3c-5.5,6.5-14,9.5-22.1,11.6C669.7,473,663.8,475.6,655.1,478.5"/>
					</g>
					<g>
						<path class="st5" d="M641.7,527.2c6.5-13.2,17.9-23.9,31.5-29.6c3.2-1.4,7.3-2.4,10.3-0.8c0.8,0.4,1.6,1.2,2,2
							c0.6,1.4-0.2,3-1.2,4.5c-4.9,6.9-13,11-20.9,13.8C655.7,520.1,650.2,523.3,641.7,527.2"/>
					</g>
					<g>
						<path class="st5" d="M635.4,563.3c5.5-12.6,15.8-23.7,28.8-30.8c3.2-1.8,6.9-3.2,10.1-2.2c0.8,0.2,1.6,0.8,2,1.4
							c0.6,1.2,0,2.8-0.8,4.1c-4.3,6.9-11.8,11.6-19.5,15.4C648.6,555,643.3,558.6,635.4,563.3"/>
					</g>
					<g>
						<path class="st5" d="M682.5,421.7c-8.3-12.6-12-28.6-10.1-44.2c0.4-3.9,1.4-7.9,4.5-10.1c0.8-0.6,1.8-1,2.8-0.8
							c1.6,0.2,2.6,1.8,3.2,3.2c3.7,7.9,3.2,17.5,1.8,26.4C683.1,405,683.3,411.9,682.5,421.7"/>
					</g>
					<g>
						<path class="st5" d="M667.9,448c-11.2-10.3-18.5-25-20.5-40.4c-0.4-3.9-0.4-8.1,2-11c0.6-0.8,1.6-1.4,2.6-1.4
							c1.6-0.2,3,1.2,4.1,2.4c5.5,6.9,7.3,16.2,7.9,25.2C664.8,431.8,666.4,438.3,667.9,448"/>
					</g>
					<g>
						<path class="st5" d="M653.4,484.4c-13-7.9-23.1-20.7-28.2-35.5c-1.2-3.7-2-7.9-0.2-11c0.6-0.8,1.2-1.6,2.2-2
							c1.6-0.4,3,0.6,4.5,1.6c6.7,5.7,10.3,14.4,12.8,22.9C647.2,469.1,650,475.2,653.4,484.4"/>
					</g>
					<g>
						<path class="st5" d="M639.6,532.4c-11-10.5-17.9-25.4-19.5-40.8c-0.4-3.9-0.4-8.1,2.2-10.8c0.6-0.8,1.6-1.4,2.6-1.4
							c1.6,0,2.8,1.2,3.9,2.6c5.3,6.9,6.9,16.4,7.5,25.4C636.8,516,638.2,522.7,639.6,532.4"/>
					</g>
					<g>
						<path class="st5" d="M635.2,568.2c-14.4-4.5-27.4-14.6-35.9-27.6c-2-3.2-3.9-7.1-2.8-10.8c0.2-1,0.8-1.8,1.6-2.4
							c1.4-0.8,3.2-0.2,4.7,0.4c7.9,3.9,13.4,11.6,18.1,19.3C625.2,555,629.7,560,635.2,568.2"/>
					</g>
				</g>
			</g>
			<g>
				<path class="st3" d="M595.2,737.2c12.8-12,31-18.1,48.5-16.4c11.8,1.2,24.8,7.5,27.4,19.1c1.2,5.5,0.8,13,6.1,15
					c5.1,2,10.1-3.2,15.4-4.9c8.7-2.8,18.9,7.1,15.8,15.8c-1.4,4.1-4.7,7.5-4.5,11.6c0.4,5.7,7.5,8.7,13.2,7.7
					c5.7-0.8,10.8-4.3,16.2-5.7c5.5-1.4,12.8,0,14.6,5.5c1.8,4.9-1.2,11.4,2.4,14.8c1.6,1.4,4.1,1.8,6.1,2
					c48.1,4.5,101,13.2,95.6,21.7c-1.4,2.4-5.3,1.6-7.9,1.6c-102.3-1.6-194.2-1.6-297.5-1.6"/>
			</g>
			<g>
				<path class="st5" d="M250.3,822.4c-0.2,0.2-0.6-13-20.3-24.8c-20.1-12.6-62.1-8.3-68-21.3c-6.3-13.8,20.3-12,31-23.1
					c11-11.4,14.6-16.4-1.4-18.9c-15.8-2-25.6-2.8-26.2-16c-0.6-13.2-26.2-5.5-39.8-14.4c-14-8.9-7.3-22.3,18.1-22.9
					c25,0,25.8-4.3,18.3-7.7c-7.3-3.4-29.4-8.9-20.5-16c9.1-7.3,23.3-2,15.4-10.1c-7.7-8.1-25.6-13.4-17.5-23.1
					c7.9-9.9,29.8-10.1,43.6,13.6c13.4,23.7,17.9,30.2,30,32.3c11.8,2.2,22.3-11.2,36.9-6.7c14.6,4.7,12.6,18.5,4.5,28
					c-8.3,9.5-21.9,28.4-12.6,36.1c8.9,7.7,18.7-4.9,31-7.7c13.8-3.2,30,7.9,18.1,27.6c-12.6,19.5-31,25.8-29.2,69
					C258.8,815.1,253.7,823.4,250.3,822.4z"/>
				<path class="st6" d="M280.1,731.5c-0.2-0.2-0.8-0.2-1,0s-25.4,24.8-34.3,54.2c-1-2.6-1.8-5.5-2.8-8.1l0,0
					c-9.1-25.4-18.7-47.1-28-65.5c1.8-2.6,17-22.7,37.5-41c0.4-0.2,0.4-0.8,0-1c-0.2-0.4-0.8-0.4-1,0
					c-19.5,17.2-34.3,36.3-37.3,40.6c-1.4-2.8-2.8-5.5-4.3-8.1c0-0.2-0.2-0.4-0.4-0.6c-6.5-12.4-13-22.9-19.1-32.1
					c0-0.2-0.2-0.4-0.4-0.6l0,0c-21.1-32.1-37.1-45.2-37.3-45.5c-0.4-0.2-0.8-0.2-1,0.2s-0.2,0.8,0.2,1s15.4,12.8,35.5,42.8
					c-19.3-9.7-39.6-8.3-39.8-8.3c-0.4,0-0.8,0.4-0.6,0.8c0,0.4,0.4,0.8,0.8,0.6c0.2,0,21.9-1.4,41.4,9.5c5.9,8.9,12,19.1,18.5,31
					c-35.5-9.9-72.8-6.9-73.2-6.9s-0.8,0.4-0.6,0.8c0,0.4,0.4,0.8,0.8,0.6c0.4,0,38.6-3,74.1,7.3c10.8,20.1,21.9,44.4,32.5,73.7
					c-25-8.3-63.5-6.3-63.9-6.3s-0.8,0.4-0.6,0.8c0,0.4,0.4,0.8,0.8,0.6c0.4,0,39.8-2,64.5,6.5c5.1,14.2,9.1,26.4,13.8,42.8
					c0.2,0.4,0.6,1.4,1,1.2c0,0,0-0.2,0.2-0.4c0.4-0.2,1,0.4,0.8,0c-3.7-12.8-7.1-22.7-10.8-34.1c8.1-29.8,34.1-55.2,34.5-55.4
					C280.3,732.3,280.3,731.7,280.1,731.5z"/>
			</g>
			<g>
				<path class="st3" d="M331.2,737.2c-12.8-12-31-18.1-48.5-16.4c-11.8,1.2-24.8,7.5-27.4,19.1c-1.2,5.5-0.8,13-6.1,15
					c-5.1,2-10.1-3.2-15.4-4.9c-8.7-2.8-18.9,7.1-15.8,15.8c1.4,4.1,4.7,7.5,4.5,11.6c-0.4,5.7-7.5,8.7-13.2,7.7
					c-5.7-0.8-10.8-4.3-16.2-5.7c-5.5-1.4-12.8,0-14.6,5.5c-1.8,4.9,1.2,11.4-2.4,14.8c-1.6,1.4-4.1,1.8-6.1,2
					c-48.1,4.5-101,13.2-95.6,21.7c1.4,2.4,5.3,1.6,7.9,1.6c102.3-1.6,194.2-1.6,297.5-1.6"/>
			</g>
		</g>
		<g>
			<path class="st7" d="M648,824.6H252.1c-7.7,0-14-6.3-14-14V239.1c0-7.7,6.3-14,14-14H648c7.7,0,14,6.3,14,14v571.4
				C662.2,818.3,655.9,824.6,648,824.6z"/>
			<path id="XMLID_377_" class="st8" d="M629.5,801.1H270.8c-4.5,0-8.1-3.7-8.1-8.1V256.7c0-4.5,3.7-8.1,8.1-8.1h358.5
				c4.5,0,8.1,3.7,8.1,8.1V793C637.6,797.4,634,801.1,629.5,801.1z"/>
			<path class="st1" d="M613.1,784.2H287.2c-5.5,0-10.1-4.5-10.1-10.1V275.6c0-5.5,4.5-10.1,10.1-10.1h325.9
				c5.5,0,10.1,4.5,10.1,10.1v498.5C623.2,779.8,618.5,784.2,613.1,784.2z"/>
			<g>
				<g>
					<path id="XMLID_384_" class="st9" d="M454.4,172.3c-12.4,0-22.5,10.1-22.5,22.5v28.8h45c0,0,0-22.9,0-28.8
						C476.9,182.2,466.8,172.3,454.4,172.3z M454.4,207.6c-6.9,0-12.6-5.7-12.6-12.6s5.7-12.6,12.6-12.6S467,188.1,467,195
						S461.3,207.6,454.4,207.6z"/>
					<path id="XMLID_378_" class="st10" d="M467,195c0-6.9-5.7-12.6-12.6-12.6c-0.6,0-1.2,0-1.8,0.2c1.8-0.8,2-1.2,5.1-1.2
						c6.9,0,12.6,5.7,12.6,12.6c0,6.3-3.2,9.7-8.1,11C465,202.5,467,198.9,467,195z M438.8,220.6v-28.8c0-7.9,3.5-14.8,9.5-18.7
						c-9.3,2.6-16.2,11.4-16.2,21.7v28.8h45c0,0,0-1.2,0-2.8h-38.3V220.6L438.8,220.6z"/>
				</g>
				<path id="XMLID_376_" class="st9" d="M586.5,235v22.5H313.8V235c0-8.7,7.1-15.8,15.8-15.8h241
					C579.4,219.2,586.5,226.3,586.5,235z"/>
				<path id="XMLID_375_" class="st10" d="M586.5,251.8v5.7H313.8V235c0-8.7,7.1-15.8,15.8-15.8h2.2c-4.3,4.1-7.5,10.1-7.5,16.4
					v16.2L586.5,251.8L586.5,251.8z"/>
			</g>
			<g>
				<g class="st11">
					<g id="XMLID_367_">
						<g id="XMLID_374_">
							<path class="st8" d="M429.2,324.1H373c-2,0-3.4-1.6-3.4-3.4c0-2,1.6-3.4,3.4-3.4h56.2c2,0,3.4,1.6,3.4,3.4
								C432.9,322.4,431.3,324.1,429.2,324.1z"/>
						</g>
						<g id="XMLID_373_">
							<path class="st8" d="M598.3,341.9h-42.8c-2,0-3.4-1.6-3.4-3.4c0-2,1.6-3.5,3.4-3.5h42.8c2,0,3.5,1.6,3.5,3.5
								C601.7,340.5,600.1,341.9,598.3,341.9z"/>
						</g>
						<g id="XMLID_372_">
							<path class="st8" d="M537,341.9H373.2c-2,0-3.5-1.6-3.5-3.4c0-2,1.6-3.5,3.5-3.5H537c2,0,3.4,1.6,3.4,3.5
								C540.4,340.5,538.8,341.9,537,341.9z"/>
						</g>
						<g id="XMLID_371_">
							<path class="st8" d="M598.3,360H373c-2,0-3.4-1.6-3.4-3.4s1.6-3.5,3.4-3.5h225c2,0,3.5,1.6,3.5,3.5
								C601.5,358.4,600.1,360,598.3,360z"/>
						</g>
						<g id="XMLID_370_">
							<path class="st8" d="M598.3,377.8h-71.6c-2,0-3.5-1.6-3.5-3.5c0-2,1.6-3.4,3.5-3.4h71.6c2,0,3.5,1.6,3.5,3.4
								S600.1,377.8,598.3,377.8z"/>
						</g>
						<g id="XMLID_369_">
							<path class="st8" d="M508.8,377.8H373c-2,0-3.4-1.6-3.4-3.5c0-2,1.6-3.4,3.4-3.4h135.7c2,0,3.4,1.6,3.4,3.4
								S510.8,377.8,508.8,377.8z"/>
						</g>
						<g id="XMLID_368_">
							<path class="st8" d="M598.3,324.1H447.9c-2,0-3.4-1.6-3.4-3.4c0-2,1.6-3.4,3.4-3.4h150.3c2,0,3.5,1.6,3.5,3.4
								C601.7,322.4,600.1,324.1,598.3,324.1z"/>
						</g>
					</g>
					<g id="XMLID_358_">
						<g id="XMLID_365_">
							<path class="st8" d="M429.2,452.9H373c-2,0-3.4-1.6-3.4-3.5c0-1.8,1.6-3.4,3.4-3.4h56.2c2,0,3.4,1.6,3.4,3.4
								C432.7,451.3,431.3,452.9,429.2,452.9z"/>
						</g>
						<g id="XMLID_364_">
							<path class="st8" d="M598.3,470.8h-42.8c-2,0-3.4-1.6-3.4-3.4c0-2,1.6-3.5,3.4-3.5h42.8c2,0,3.5,1.6,3.5,3.5
								C601.7,469.3,600.1,470.8,598.3,470.8z"/>
						</g>
						<g id="XMLID_363_">
							<path class="st8" d="M537,470.8H373.2c-2,0-3.5-1.6-3.5-3.4c0-2,1.6-3.5,3.5-3.5H537c2,0,3.4,1.6,3.4,3.5
								S538.8,470.8,537,470.8z"/>
						</g>
						<g id="XMLID_362_">
							<path class="st8" d="M598.3,488.8H373c-2,0-3.4-1.6-3.4-3.4c0-2,1.6-3.5,3.4-3.5h225c2,0,3.5,1.6,3.5,3.5
								C601.7,487.2,600.1,488.8,598.3,488.8z"/>
						</g>
						<g id="XMLID_361_">
							<path class="st8" d="M598.3,506.7h-71.6c-2,0-3.5-1.6-3.5-3.5s1.6-3.4,3.5-3.4h71.6c2,0,3.5,1.6,3.5,3.4
								S600.1,506.7,598.3,506.7z"/>
						</g>
						<g id="XMLID_360_">
							<path class="st8" d="M508.8,506.7H373c-2,0-3.4-1.6-3.4-3.5s1.6-3.4,3.4-3.4h135.7c2,0,3.4,1.6,3.4,3.4
								S510.8,506.7,508.8,506.7z"/>
						</g>
						<g id="XMLID_359_">
							<path class="st8" d="M598.3,452.9H447.9c-2,0-3.4-1.6-3.4-3.5c0-1.8,1.6-3.4,3.4-3.4h150.3c2,0,3.5,1.6,3.5,3.4
								C601.7,451.3,600.1,452.9,598.3,452.9z"/>
						</g>
					</g>
					<g id="XMLID_349_">
						<g id="XMLID_356_">
							<path class="st8" d="M429.2,577.3H373c-2,0-3.4-1.6-3.4-3.4c0-1.8,1.6-3.4,3.4-3.4h56.2c2,0,3.4,1.6,3.4,3.4
								C432.7,575.7,431.3,577.3,429.2,577.3z"/>
						</g>
						<g id="XMLID_355_">
							<path class="st8" d="M598.3,595.1h-42.8c-2,0-3.4-1.6-3.4-3.5s1.6-3.5,3.4-3.5h42.8c2,0,3.5,1.6,3.5,3.5
								S600.1,595.1,598.3,595.1z"/>
						</g>
						<g id="XMLID_354_">
							<path class="st8" d="M537,595.1H373.2c-2,0-3.5-1.6-3.5-3.5s1.6-3.5,3.5-3.5H537c2,0,3.4,1.6,3.4,3.5S538.8,595.1,537,595.1z
								"/>
						</g>
						<g id="XMLID_353_">
							<path class="st8" d="M598.3,613H373c-2,0-3.4-1.6-3.4-3.5c0-2,1.6-3.4,3.4-3.4h225c2,0,3.5,1.6,3.5,3.4
								C601.7,611.6,600.1,613,598.3,613z"/>
						</g>
						<g id="XMLID_352_">
							<path class="st8" d="M598.3,631.1h-71.6c-2,0-3.5-1.6-3.5-3.4c0-2,1.6-3.4,3.5-3.4h71.6c2,0,3.5,1.6,3.5,3.4
								C601.7,629.4,600.1,631.1,598.3,631.1z"/>
						</g>
						<g id="XMLID_351_">
							<path class="st8" d="M508.8,631.1H373c-2,0-3.4-1.6-3.4-3.4c0-2,1.6-3.4,3.4-3.4h135.7c2,0,3.4,1.6,3.4,3.4
								C512.2,629.4,510.8,631.1,508.8,631.1z"/>
						</g>
						<g id="XMLID_350_">
							<path class="st8" d="M598.3,577.3H447.9c-2,0-3.4-1.6-3.4-3.4c0-1.8,1.6-3.4,3.4-3.4h150.3c2,0,3.5,1.6,3.5,3.4
								S600.1,577.3,598.3,577.3z"/>
						</g>
					</g>
					<g id="XMLID_308_">
						<g id="XMLID_347_">
							<path class="st8" d="M429.2,703.9H373c-2,0-3.4-1.6-3.4-3.4c0-2,1.6-3.4,3.4-3.4h56.2c2,0,3.4,1.6,3.4,3.4
								C432.9,702.3,431.3,703.9,429.2,703.9z"/>
						</g>
						<g id="XMLID_346_">
							<path class="st8" d="M598.3,721.8h-42.8c-2,0-3.4-1.6-3.4-3.5c0-2,1.6-3.4,3.4-3.4h42.8c2,0,3.5,1.6,3.5,3.4
								S600.1,721.8,598.3,721.8z"/>
						</g>
						<g id="XMLID_345_">
							<path class="st8" d="M537,721.8H373.2c-2,0-3.5-1.6-3.5-3.5c0-2,1.6-3.4,3.5-3.4H537c2,0,3.4,1.6,3.4,3.4
								S538.8,721.8,537,721.8z"/>
						</g>
						<g id="XMLID_344_">
							<path class="st8" d="M598.3,739.6H373c-2,0-3.4-1.6-3.4-3.4c0-2,1.6-3.4,3.4-3.4h225c2,0,3.5,1.6,3.5,3.4
								C601.7,738.2,600.1,739.6,598.3,739.6z"/>
						</g>
						<g id="XMLID_343_">
							<path class="st8" d="M598.3,757.7h-71.6c-2,0-3.5-1.6-3.5-3.4s1.6-3.4,3.5-3.4h71.6c2,0,3.5,1.6,3.5,3.4
								S600.1,757.7,598.3,757.7z"/>
						</g>
						<g id="XMLID_342_">
							<path class="st8" d="M508.8,757.7H373c-2,0-3.4-1.6-3.4-3.4s1.6-3.4,3.4-3.4h135.7c2,0,3.4,1.6,3.4,3.4
								S510.8,757.7,508.8,757.7z"/>
						</g>
						<g id="XMLID_341_">
							<path class="st8" d="M598.3,703.9H447.9c-2,0-3.4-1.6-3.4-3.4c0-2,1.6-3.4,3.4-3.4h150.3c2,0,3.5,1.6,3.5,3.4
								C601.7,702.3,600.1,703.9,598.3,703.9z"/>
						</g>
					</g>
				</g>
				<g id="XMLID_128_">
					<path id="XMLID_306_" class="st12" d="M349.9,366.7h-43c-2.4,0-4.3-1.8-4.3-4.3v-43c0-2.4,1.8-4.3,4.3-4.3h43
						c2.4,0,4.3,1.8,4.3,4.3v43C354.2,364.9,352.1,366.7,349.9,366.7z"/>
					<path id="XMLID_305_" class="st12" d="M349.9,495.1h-43c-2.4,0-4.3-1.8-4.3-4.3v-43c0-2.4,1.8-4.3,4.3-4.3h43
						c2.4,0,4.3,1.8,4.3,4.3v43C354.2,493.3,352.1,495.1,349.9,495.1z"/>
					<path id="XMLID_304_" class="st12" d="M349.9,623.5h-43c-2.4,0-4.3-1.8-4.3-4.3v-43c0-2.4,1.8-4.3,4.3-4.3h43
						c2.4,0,4.3,1.8,4.3,4.3v43C354.2,621.5,352.1,623.5,349.9,623.5z"/>
					<path id="XMLID_303_" class="st12" d="M349.9,752h-43c-2.4,0-4.3-1.8-4.3-4.3v-43c0-2.4,1.8-4.3,4.3-4.3h43
						c2.4,0,4.3,1.8,4.3,4.3v43C354.2,750,352.1,752,349.9,752z"/>
					<g id="XMLID_297_">
						<path class="st9" d="M328.4,359.2c-1.2,0-2.2-0.6-3-1.4l-19.5-23.5c-1.4-1.6-1.2-4.1,0.6-5.5c1.6-1.4,4.1-1.2,5.5,0.6l16,19.3
							l34.5-54.4c1.2-1.8,3.7-2.4,5.5-1.2c1.8,1.2,2.4,3.7,1.2,5.5l-37.5,58.8c-0.6,1-1.8,1.8-3,1.8
							C328.4,359.2,328.4,359.2,328.4,359.2z"/>
					</g>
					<g id="XMLID_132_">
						<path class="st9" d="M328.4,486.6c-1.2,0-2.2-0.6-3-1.4l-19.5-23.5c-1.4-1.6-1.2-4.1,0.6-5.5c1.6-1.4,4.1-1.2,5.5,0.6l16,19.3
							l34.5-54.4c1.2-1.8,3.7-2.4,5.5-1.2c1.8,1.2,2.4,3.7,1.2,5.5l-37.5,58.8c-0.6,1-1.8,1.8-3,1.8
							C328.4,486.6,328.4,486.6,328.4,486.6z"/>
					</g>
					<g id="XMLID_36_">
						<path class="st9" d="M328.4,614.4c-1.2,0-2.2-0.6-3-1.4l-19.5-23.5c-1.4-1.6-1.2-4.1,0.6-5.5c1.6-1.4,4.1-1.2,5.5,0.6l16,19.3
							l34.5-54.4c1.2-1.8,3.7-2.4,5.5-1.2s2.4,3.7,1.2,5.5l-37.5,58.8c-0.6,1-1.8,1.8-3,1.8C328.4,614.4,328.4,614.4,328.4,614.4z"
							/>
					</g>
				</g>
			</g>
		</g>
	</g>
	<g>
		<g>
			<path class="st13" d="M432.3,650.9c-6.1,6.5-10.3,48.1-10.6,49.7s-30.6,18.7-30.6,18.7l4.3,4.9c0,0,32.5-8.1,38.3-15.2
				c4.9-5.9,16.4-55,16.4-55S442.4,640.2,432.3,650.9z"/>
			<ellipse class="st14" cx="479.6" cy="931.3" rx="90.7" ry="6.3"/>
			<g>
				<path class="st15" d="M525.8,904.8c0,0,2.4,5.1,3.7,6.5c1.2,1.6,6.5-2,6.5-3.2s-4.7-9.1-4.7-9.1"/>
				<path class="st16" d="M538.4,908.6c1.2,1.8,3,5.1,3,5.1l-4.7,4.5l-1.2-0.6c0,0-0.8,2.2-2.2,3.7c-1,1-3.5,2.8-4.9,3.5
					c-4.7,2.2-8.5,2.6-9.1,2c-2.2-2.4,4.1-5.7,5.1-6.5c3.2-2.4,4.3-6.3,3.9-8.5c-0.2-1.6-0.8-1.8,0.2-2c0,0,0.8-0.2,1.6,0.2
					c1.4,0.8,3.2,0.6,4.3-0.4c0.6-0.6,1.2-1.4,1.4-2.4C535.8,907.2,537.2,906.8,538.4,908.6z"/>
			</g>
			<g>
				<path class="st15" d="M436.1,914.7c0,0-1.2,3-1,4.9c0.2,2,6.5,2,7.3,1s1.2-9.9,1.2-9.9"/>
				<path class="st16" d="M444.1,922.4c0,2-0.6,5.3-0.6,5.3H436l-0.4-1.2c0,0-2.4,1.2-4.3,1.2H425c-4.7,0-7.1-0.6-7.3-1.4
					c-0.4-3.2,5.1-3,6.5-3c4.1,0,8.5-1.8,9.5-3.9c0.6-1.4,0.4-1.8,1.2-1.6c0,0,0.8,0.2,1.2,1c0.8,1.4,2.2,2.2,3.9,2
					c1-0.2,1.8-0.4,2.4-1.2C442.6,919.8,444.1,920.4,444.1,922.4z"/>
			</g>
			<path class="st17" d="M473.9,780c0,0.2-6.1-6.7-6.1-6.3c-2.4,12-13.6,52.3-17.2,62.9l0,0c-0.6,1.4-3.4,4.7-5.7,5.3
				c-5.5,1.4-14.2-0.4-14.8-10.8c0-1.2,0.2-2.4,0-3.7c-1.6-16,13.8-86.6,14.2-91.1c0.4-4.5,9.1-1.2,11.8-2
				C468.4,730.1,477.1,763.1,473.9,780z"/>
			<path class="st17" d="M451.4,842.3c-2.4-7.5,1.2-16.2,1.2-16.2s-21.3-16.4-22.5-6.5c-0.2,0.8-0.8,7.5-0.8,11.4
				c0,13.8,4.9,57,4.5,83.6v1.8c0,0,3.7,0.6,9.7,0.6c0.2,0,0.6,0,0.8,0c1.8-16.4,5.7-39,7.5-61.5C452.4,850,451.8,843.5,451.4,842.3
				z"/>
			<path class="st17" d="M504.7,843.3c-4.3-5.5-8.7-7.9-9.9-12.2c-3-9.7-2.2-49.5-2.4-60.5c0.8-2.2,8.9-24.8-7.5-41.4
				c0,0-14.8,6.7-26.6,7.5c-9.3,0.6-14-0.4-14-0.4s8.7,14,9.3,20.3c0.8,10.6,19.5,74.5,20.9,77.9c3.2,7.9,6.9,11.2,7.9,12.8
				c8.3,11.4,27.6,35.3,42.4,58.2l1,1.4c0,0,3-1,8.5-5.1C526.4,886.9,518.1,860.9,504.7,843.3z"/>
			<path class="st13" d="M432.3,650.9c3-3.4,15.8-8.7,28.6-8.3c8.7,0.2,36.5,3,39.4,8.9c1.4,3,1.2,31.5-0.8,42
				c-1.4,7.9-6.1,28.4-6.1,33.1c0,4.7,2.6,6.7,1.4,8.1c-2.6,3-22.7,4.5-31.2,4.5c-7.7,0-20.7-2-21.3-4.5c-1-3.7,1.4-3.5,1.8-7.3
				c0.4-3.9,2.2-28.8-0.2-32.5c-3.4-5.9-8.9-22.1-9.1-26.6C434.5,664.3,429.4,654.4,432.3,650.9z"/>
			<path class="st15" d="M453.4,631.9c0,0,0,10.6-0.6,11c-0.4,0.4-2.4,1.4-2.4,1.4s1.4,9.1,3.9,8.5c2.2-0.6,17.4-8.3,17.4-8.3
				s-2.2-0.8-2.2-1.8c0-0.8,2-17.5,2-17.5"/>
			<g>
				<path class="st18" d="M457.6,597c-1.8-1.4-4.5-1.4-6.5-0.4s-3.7,2.8-4.5,5.1c-0.8,2-1,4.5,0,6.5c-1.6,0.4-2.4,2.2-2.4,3.9
					c0,1.8,1,3.5,2,4.9c0.8,1.4,2.8,2.2,4.5,1.8c1.2-0.2,2-1,2.8-2c0.6-1,1.2-2,1.6-3c2-5.1,3.2-10.3,4.3-15.6"/>
			</g>
			<path class="st15" d="M464.1,593.3c-2.2,0.6-8.1-0.6-9.7,1.8c-1.6,2.4-3,8.3-3.7,9.9c-1.2,3.2-2,6.7-2.8,9.9
				c-1.2,4.3-4.1,12.4,0.2,16c1.2,1,2.8,1.2,4.3,1.4c2,0.4,4.1,0.8,5.9,1.2c3,0.6,6.5,1.2,9.5,0.2c4.1-1.4,6.3-6.9,7.5-10.8
				l6.1-21.9L464.1,593.3z"/>
			<g>
				<path class="st15" d="M473.1,625.2c0,0-0.2,1,0.6,1.6c0.6,0.6,1.6,0.4,2.4,0c2-1,3.2-3.2,3.5-5.5c0.2-2.6-1.4-5.1-3.7-4.1
					c-1.4,0.6-2,2.2-1.8,3.7"/>
			</g>
			<g>
				<path class="st19" d="M478.8,613.2c-0.8,2.2-2.6,7.1-4.7,6.7c-2-0.4,0.8-8.3,2.4-11.4c-2.4,0-5.5-0.4-6.5-2.6
					c-0.2-0.6-0.4-1.2-0.8-1.4c-0.4,0-0.8,0.2-1.2,0.6c-1.8,1.2-4.1,0-5.5-1.6c-0.4-0.4-0.6-0.8-1.2-0.8c-0.2,0-0.6,0.2-0.8,0.4
					c-2.8,2-10.6,2-10.6-1.6c-2.4,1.2-4.1-1.8-4.1-4.1c0.2-2.2,1.8-5.7,5.3-5.7c-0.2-2.6,1.8-4.3,4.1-5.9c2-1.6,4.7-2.2,7.3-2.4
					c4.1-0.2,8.9,1.4,10.3,5.5c0.2,0.2,0.2,0.6,0.4,0.8c0.2,0.2,0.6,0,1,0c3.2-0.8,6.7-0.4,9.1,1.8s3.2,6.1,1.4,8.9
					c2.4,0.6,3.7,3.5,3.5,5.9c-0.4,2.4-2,4.5-3.7,6.5c2.6,0.8,3.7,4.5,2.4,6.9c-1.4,2.4-4.7,3.7-7.5,3.2c0.6-2.4-0.4-5.3-2.8-5.9"/>
			</g>
			<path class="st19" d="M453.6,655.4c0,0-0.8,39-2.4,62.7l5.7,7.9l3.9-9.9c0,0,1.6-28.6-3.7-60.5L453.6,655.4z"/>
			<path class="st18" d="M452.4,652l0.2,0.6c0.2,1,0.6,2,1.2,2.8l0,0l3.4,0.2c0,0,2.4-1.2,2.6-2.6c0.4-1.4-3.9-3.4-3.9-3.4l-0.6,0.2
				C454.2,650.1,453.2,650.9,452.4,652L452.4,652z"/>
			<path class="st20" d="M470,639c0,0,3,2.2,4.9,4.9c-1.8,4.1-7.1,11.2-11.8,14.6c-2-5.7-7.1-8.9-7.1-8.9S468.8,646.9,470,639z"/>
			<path class="st20" d="M456,649.5c0,0-4.5,1.8-6.9,6.7c0,0-0.8-6.7,1-12.4c0,0,2.4-4.1,3.4-4.1C452.8,644.4,456,649.5,456,649.5z"
				/>
			<path class="st21" d="M451.4,842.3c-0.6-1.8-0.8-3.7-0.8-5.5l0.2-0.2l0,0c2.4-7.1,8.3-27.6,12.6-44l-6.7-23.7
				c0,0-4.1,48.3-5.3,51.7c-1.4,3.4-5.5,14.6-5.1,17s3,6.9,2.6,10.6c-0.4,3.9-0.4,37.9-0.4,38.1c1.2-9.9,2.6-20.3,3.4-30.8
				C452.4,850,451.8,843.5,451.4,842.3z"/>
			<g>
				<path class="st22" d="M396,717.3c0.4-1.2-0.2-2.8-1.2-3.9c-0.8-1-2-1.6-3.5-2c-0.4-0.2-0.8-0.2-1,0s0,0.4,0,0.8
					c0.4,0.8,1.4,1.2,2,2c0.2,0.2,0.4,0.6,0.4,1C393.5,716.3,394.8,717.1,396,717.3"/>
			</g>
			<path class="st23" d="M441.2,688.9c0,0-5.1-12.6-5.9-17.7c-2.4,12.4-1.6,33.9-3.7,35.7c-2,1.8-22.3,13.4-22.3,13.4l0,0
				c9.5-3,21.3-7.3,24.8-11.4C435.7,706.7,438.6,698.4,441.2,688.9L441.2,688.9z"/>
			<path class="st24" d="M453.4,632.7c0,0,8.5,1.8,10.1,1.6s-3.2,2.6-4.3,2.6c-0.8,0.2-5.9-0.6-5.9-0.6L453.4,632.7L453.4,632.7z"/>
			<path class="st23" d="M500.3,651.8c-0.2-0.2-0.2-0.4-0.4-0.8l-18.5,18c-4.5,11.6-13.2,42.4-13.2,42.4s-8.3,3.9-13.8,6.7
				c-1.4,0.8-5.5,3.5-10.1,6.7c0,1.4-0.2,2.4-0.2,3c-0.4,3.9-0.8,3.9,0.2,7.5c0,2.4-1,6.1-1.6,9.5c13.8-3.5,42.2-12.4,43.4-13
				c1.6-0.8,9.9-34.7,14.8-55.2C501.7,664.1,501.3,653.8,500.3,651.8z"/>
			<g>
				<polygon id="XMLID_183_" class="st9" points="328.2,608.9 361.3,626.6 469.2,780.8 470.2,782.2 480.2,796.8 453.8,815.3 
					443.2,799.7 441,796.6 334.9,645.1 				"/>
				<polygon id="XMLID_148_" class="st25" points="474.5,788.9 480.2,796.8 453.8,815.3 448.1,807.4 				"/>
				
					<rect id="XMLID_151_" x="442.5" y="788.9" transform="matrix(0.8196 -0.5729 0.5729 0.8196 -372.0802 405.9391)" class="st26" width="32.3" height="9.9"/>
				<polygon id="XMLID_156_" class="st26" points="334.9,645.1 361.3,626.6 328.2,608.9 				"/>
				<polygon id="XMLID_159_" class="st27" points="330.6,621.9 339.6,615 328.2,608.9 				"/>
				<polygon id="XMLID_65_" class="st9" points="330.6,621.9 339.6,615 328.2,608.9 				"/>
				<polygon id="XMLID_163_" class="st9" points="328.2,608.9 356,630.4 472.9,802.1 480.2,796.8 361.3,626.6 				"/>
			</g>
			<g>
				<g>
					<path class="st15" d="M427.6,739c0,0-3.9,1.2-6.1,1.8c-1.4,0.4-7.7-0.2-11.4,0.6c-1.8,0.4-3.7,1-4.9,2.4
						c-1.2,1.4-1.2,3.9,0.2,4.9c0.4,0.2,1,0.6,1,1c0,0.2-0.2,0.6-0.2,0.8c-0.2,0.8,0,1.6,0.6,2.2c0.6,0.6,1.6,0.6,2.2,0.2
						c0,1.6,1.4,3.2,3.2,3.2c0-1,0.2-2,1-2.4c0.8-0.6,1.6-0.4,2.6-0.6c1.6-0.2,3-0.8,4.3-2c0.8-0.8,1.4-1.8,2-2.6
						c1.4-1.8,3.7-3,5.9-3.4"/>
				</g>
				<path class="st13" d="M481.2,667c-1.6,4.9-10.8,47.7-10.8,47.7s-8.7,2.2-14.4,5.1c-4.3,2.2-34.3,20.9-34.3,20.9l3,7.1
					c0,0,53.4-18.9,55.8-20.1c2.4-1.2,23.7-55.4,23.7-64.9c0-5.7-4.7-11.6-4.7-11.6"/>
			</g>
			<g>
				<path class="st15" d="M390.3,724.4c-1.8,0.2-3.4-1.2-3.7-2.8c0-0.4,0-0.6-0.2-1c-0.4-0.6-1-0.6-1.6-0.8c-2.2-0.8-3.7-3-4.1-5.3
					c-0.2-1.2-0.2-2.4,0.2-3.7c0.4-1.2,1.4-2.2,2.6-2.4c0.2,0,0.4,0,0.8,0c0.2,0,0.4,0.2,0.6,0.4c0.6,1,1.2,2,1.4,3
					c0.2,0.8,0.4,1.8,1,2.2c0.4,0.4,1,0.4,1.6,0.6c1,0.6,1.4,1.6,1.8,2.8C390.9,718.9,390.1,722.6,390.3,724.4"/>
			</g>
		</g>
		<g>
			<g>
				<path class="st19" d="M556.1,611.8h50.7c1.2,0,2,0.8,2.4,1.8l7.9,29.2l15.4,8.1h-56l-15.4-8.1l-7.7-27.8
					C553.2,613.4,554.4,611.8,556.1,611.8z"/>
				<path class="st17" d="M562.1,642.2h54.8l-7.9-28.6c-0.2-1-1.2-1.8-2.4-1.8h-49.7c-1.6,0-2.8,1.6-2.4,3L562.1,642.2z"/>
				<path class="st8" d="M555.9,614.6l1,3.4l0,0l5.7,20.9c0.2,1.2,1.4,1.8,2.4,1.8h46.9c1.6,0,2.8-1.6,2.4-3.2l-0.4-1.2l-1-3.9
					l-1-4.1l-2.6-9.7l-1-3.7c-0.2-1.2-1.4-1.8-2.4-1.8h-48.7c-0.4,0-0.6,0.2-0.8,0.4C555.9,613.8,555.9,614.2,555.9,614.6z"/>
				<polygon class="st17" points="577.2,650.1 632.1,650.1 616.9,642.2 562.1,642.2 				"/>
				<ellipse class="st14" cx="651.4" cy="851.6" rx="43.2" ry="3.9"/>
				<g>
					<path class="st15" d="M665,835c0,0,0.2,7.3,0.4,9.1s6.1,2,6.7,1c0.6-1,1-9.5,1-9.5"/>
					<path class="st16" d="M673.5,846.7c0,1.8-0.6,5.1-0.6,5.1h-6.7l-0.4-1.2c0,0-2.2,1.2-3.9,1.2h-5.7c-4.3,0-6.5-0.6-6.7-1.2
						c-0.4-3,4.5-3,5.9-3c3.7,0,7.7-1.8,8.7-3.7c0.6-1.4,0.4-1.8,1.2-1.4c0,0,0.6,0.2,1.2,1c0.8,1.2,2,2.2,3.4,2
						c0.8-0.2,1.6-0.4,2.2-1C672.1,844.3,673.5,844.7,673.5,846.7z"/>
				</g>
				<g>
					<path class="st15" d="M641.1,832.9c0,0,1.2,4.9,2,6.7c0.8,1.6,6.3-0.4,6.7-1.6c0.2-1.2-2.6-9.1-2.6-9.1"/>
					<path class="st16" d="M651.8,839c0.8,1.8,1.8,5.3,1.8,5.3l-5.1,3l-1-0.8c0,0-1.2,1.8-2.6,2.8c-1.2,0.8-3.7,1.8-5.1,2
						c-4.7,1-8.3,0.6-8.7,0c-1.6-2.6,4.7-4.3,5.9-4.7c3.5-1.4,5.1-4.7,5.3-6.9c0-1.4-0.4-1.8,0.6-1.8c0,0,0.6-0.2,1.4,0.4
						c1.2,1,2.6,1.2,4.1,0.4c0.8-0.4,1.4-1,1.6-1.8C649.8,837.2,651.2,837.2,651.8,839z"/>
				</g>
				<path class="st9" d="M677.4,668.4c2.4-1.8,5.1-3.9,7.7-5.9c5.7-4.9,11-10.1,11.6-13.8c1.4-8.5,0.4-34.1-0.4-46.1
					c0-0.8,0-1.4-0.2-2c-0.6-11.4-6.7-16.4-9.7-18.3c-1.6,14.8-5.1,48.1-5.3,49.7C680.4,634.1,677.4,668.4,677.4,668.4z"/>
				<path class="st10" d="M677.4,668.4c2.4-1.8,5.1-3.9,7.7-5.9c0.2-9.3,3-22.5,6.9-39c4.7-20.7,1.8-24.5,1.8-24.5l-9.3,1.4
					c-1.6,14.6-3.2,30.4-3.4,31.5C680.4,634.1,677.4,668.4,677.4,668.4z"/>
				<path class="st17" d="M654.9,745.9c0.6,10.6,1.4,21.3,2.8,28.8c1.2,6.5,21.3,7.5,18.9,2.6c-3.7-7.1,2.8-29.6,5.9-68
					c0.4-5.9,3-6.5,4.9-18.5c1.6-12-4.9-22.3-4.9-22.3l-28-2.6l-0.4,34.7l-0.2,11.8C654.1,712.8,654.1,729.1,654.9,745.9z"/>
				<path class="st17" d="M674.1,773.1c0,0,5.5,6.7,4.7,18.9s-5.1,48.9-5.1,48.9s-6.5,1-9.7-0.2c0,0-6.9-68-6.9-75.7
					S674.1,773.1,674.1,773.1z"/>
				<path class="st21" d="M654.9,745.9c1.8-5.7,5.3-16.4,8.1-22.5c4.1-8.5,7.9-12.2,7.9-12.2c14.2-14.8,4.5-34.1,4.5-34.1
					s-11.6,9.5-12.4,10.6c-0.8,1-5.3,9.1-8.7,13.4l-0.2,11.8C654.1,712.8,654.1,729.1,654.9,745.9z"/>
				<path class="st17" d="M621.8,741.4c0,0-6.3,20.9-5.3,27.4s24.1,67.6,24.1,67.6s4.3,0,9.3-2.2c0,0-0.4-26.8-5.1-43.6
					c-4.5-16.8-9.7-27.2-14.4-28.6C625.9,760.3,623,744.9,621.8,741.4z"/>
				<path class="st17" d="M642.3,753.8c0,0-6.9,11-2.6,20.7c4.3,9.7-7.1,8.1-7.1,8.1s-5.7-16.4-4.5-18.7c1.2-2.2,5.9-9.3,7.5-9.7
					C637,754,642.3,753.8,642.3,753.8z"/>
				<path class="st17" d="M635.2,667c0,0-14.6,68-16.6,86.2c-0.8,7.7,7.3,20.7,14.8,13.6c8.9-8.3,23.5-46.7,28-53.6
					c4.5-6.7,21.5-13,9.9-47.5"/>
				<path class="st15" d="M671.5,575.7c0,0-2-6.9-1.2-11.8c0.8-5.1,3.9-14,2.8-20.9c-1-6.9-9.7-12.4-18.7-11.6
					c-9.1,0.8-11.8,9.5-13.2,14.6s-1.2,12.6-0.8,16.8c0.4,4.1,2.6,7.5,4.1,8.3c1.4,0.8,7.1-0.2,8.1,0.8s1.8,7.5,1.8,7.5"/>
				<path class="st1" d="M675.8,580.9c0,0-0.4-4.1-2-5.3s-11.6-1.4-14.6-1s-10.3,3.9-11.4,4.7c-1,0.8,1,4.5,1,4.5L675.8,580.9z"/>
				<path class="st19" d="M671.1,566.9c0,0-12.6,1-15,0s-5.9-3.4-6.1-7.7c-0.4-4.3,0.6-5.7-1-7.9c-1.6-2.4-3-1.6-3.2,0.6
					c-0.2,2.2-0.4,6.3-1,6.7c-0.8,0.4-1.8-2.4-1.4-6.9c0.2-3.9,0.6-6.7,1.8-9.1s1.8-2.4,2.8-2.8c-1-0.6-2.2-0.6-4.5-4.1
					c-2.4-3.9-1.2-9.9,5.5-9.9c11.6,0,23.9,2.2,24.1,11c0,0,4.1-0.6,4.3,7.3c0.2,7.9-4.9,17.2-5.3,19.7
					C671.7,566.1,672.3,566.5,671.1,566.9z"/>
				<path class="st9" d="M636.2,659.3c-0.4,3.9-3.9,9.9-1.6,11c1,0.4,4.9,0.2,9.5-0.2h0.2h0.2c4.3-0.4,8.9-0.8,13-1.2
					c16-0.6,24.1,2.4,25.8,1.6c0.8-0.4,0.8-1.8,0.6-3.2c-0.6-3.4-0.8-7.1-0.2-10.6c0.4-3,1-6.5,1.6-10.6c2.6-14,7.7-35.3,8.5-48.3
					c1.2-20.1-20.3-18.3-20.3-18.3c-27.4-1.6-40.4,6.3-41.8,18.1c-0.2,0.8-0.2,1.8-0.2,2.6c-0.6,12.2,3,31.9,4.7,46.5
					C636.6,650.7,636.4,655.4,636.2,659.3z"/>
				<path class="st28" d="M636.2,659.3c-0.4,3.9-3.9,9.9-1.6,11c1,0.4,4.9,0.2,9.5-0.2c-4.3,0.4-5.1-2.8-4.1-5.1
					c1-2.2,2.8-7.1,2.6-13s-2.4-19.1-3.7-31.4c-1.2-11.6-0.2-20.7,0-21.9c-0.6,1.2-2.6,3.2-7.9,4.5c-0.2,12.2,3.2,30.2,4.9,43.8
					C636.6,650.7,636.4,655.4,636.2,659.3z"/>
				<path class="st15" d="M566.2,651.8c-0.6-0.4,0-1,0.6-1c0,0,0.2,0,0.6,0c-1.2-0.4-2-0.6-2.2-0.8c-0.6-0.4,0-1,0.6-1
					c-0.4-0.2-0.8-0.2-0.8-0.4c-0.8-0.4,0-1.2,0.6-1c0.2,0,0.6,0.2,1.2,0.2c-0.2-0.2-0.6-0.2-0.6-0.2c-0.6-0.4-0.2-1,0.4-1
					c0.2,0,0.6,0,1.4,0.2c0.6,0.2,1.4,0.2,2.2,0.4c1,0.2,2,0.4,2,0.4c2.4-0.8,3.7-2,3.7-2l-2.4-1.4c0,0-0.2-2,6.5,0.4
					c1,0.4,1.8,1.8,2.4,1.8c0.6,0.2,2.4,0.2,2.4,0.2v5.9c0,0-3.2-0.6-4.3-0.2c-1,0.4-4.9,1.6-5.5,1.6c-0.2,0-1.4,0-2.8-0.2l-2-0.4
					l-1.8-0.6C568.4,652.8,566.4,652,566.2,651.8z"/>
				<path class="st9" d="M583.4,653c0,0,10.6,2.4,18.9,3.9c6.5,1.2,13.6,2.2,20.5,1.6h0.2c4.3-0.2,9.9-1.4,11.2-3.2
					c1.2-1.8,3.9-9.3,3.9-9.3c2.2-4.5,5.5-16.4,8.1-26.8c0-0.2,0-0.4,0.2-0.4c1.2-4.9,2.4-9.1,3.2-12.2c0.4-1.4,0.4-2.8-0.2-4.1
					c-0.4-1.2-1.2-2.2-2.2-2.8l0,0c-2.8-2-2-4.7-4.9-2.8c-0.2,0-2-0.4-2-0.4c-1.8-4.7-0.6-11-0.6-11s-8.3,3.7-11.4,20.7
					c-0.6,3.9-4.9,30.6-5.1,33.9c0,0.2,0,0.4,0,0.8c0,0-0.2,0.4-0.2,1c0,0.2,0,0.4,0,0.6c-2.4,0-5.3,0.2-8.1,0.8
					c-9.5,2.2-30.6,3.2-30.6,3.2l-0.6,5.3l0,0l0,0L583.4,653z"/>
				<g class="st29">
					<polygon class="st30" points="595.8,613 611.9,628.4 609.2,618.7 603.3,613 					"/>
					<polygon class="st30" points="614.1,636.3 589.7,613 592.8,613 612.9,632.5 					"/>
					<polygon class="st30" points="564.8,613 593.6,640.8 596.4,640.8 567.8,613 					"/>
					<path class="st30" d="M555.9,614.6l1,3.4l0,0l23.5,22.7h8.1L559.7,613h-2.8c-0.4,0-0.6,0.2-0.8,0.4
						C555.9,613.8,555.9,614.2,555.9,614.6z"/>
				</g>
			</g>
			<g>
				<path class="st3" d="M687.1,524.9c-1.2-3.2-1.4-7.1-0.2-10.6c2.8-8.5,11.8-13,20.3-10.3c8.5,2.8,13,11.8,10.3,20.3
					c-2.8,8.5-11.8,13-20.3,10.3c-3-1-5.7-2.8-7.7-5.3l-6.9,1.2L687.1,524.9z"/>
				<path class="st1" d="M708.8,514.6c-1.6-1.4-4.1-1.4-5.5,0.2l-1,1l-1-1c-1.6-1.4-4.1-1.4-5.5,0.2s-1.4,4.1,0.2,5.5l3.9,3.7l0,0
					c0.6,0.6,1.4,0.8,2.2,1c1.2,0.2,2.4-0.2,3.4-1.2l3.7-3.9C710.7,518.6,710.5,516.2,708.8,514.6z"/>
			</g>
		</g>
		<g>
			<g>
				<ellipse class="st14" cx="180.1" cy="848" rx="70.8" ry="4.9"/>
				<g>
					<g>
						<path class="st3" d="M124.7,504.9c2.2-2.8,3.4-6.3,3.4-9.9c0-8.9-7.1-16-16-16s-16,7.1-16,16s7.1,16,16,16
							c3.2,0,6.3-1,8.9-2.6l6.3,3.2L124.7,504.9z"/>
						<path class="st1" d="M105.4,490.4c1.6-1.4,4.1-1.4,5.5,0l1,1l1-1c1.6-1.6,4.1-1.4,5.5,0c1.4,1.6,1.4,4.1,0,5.5l-3.9,3.9l0,0
							c-0.6,0.6-1.4,1-2.2,1c-1.2,0.2-2.4-0.2-3.4-1.2l-3.7-3.9C103.8,494.5,103.8,491.9,105.4,490.4z"/>
					</g>
					<g>
						<path class="st19" d="M138.3,591.1l-5.7,22.1c0,0,21.3,16.4,29.6,9.5s-0.2-28-0.2-28l-2.8-3L138.3,591.1z"/>
						<path class="st19" d="M178.1,517.8c0,0,6.1,7.1,4.1,21.7c-0.6,4.3,4.9,10.3,8.7,13.2c3.7,3,7.1,10.1,4.3,16.8
							c-3,6.7-4.3,7.3-1.8,13.6c4.5,11.8,1.8,33.3-15,31.7c-16.8-1.8-18.3-59.4-18.3-59.4l1-19.3L178.1,517.8z"/>
						<g>
							<path class="st15" d="M172.4,577.1c0,0,6.1,0.8,13.8,1.8c11.6,1.4,27,2.6,30.8,0.6c6.5-3.2,27.6-21.3,27.6-21.3l3.2-2.2
								c0.6-0.4,1.2-0.6,1.8-0.6s1.8-0.2,3.4-0.6c0.8-0.2,1.6-0.6,2.2-1c0.2,0,0.2-0.2,0.4-0.2l0,0c1.4-1,2.6-2,3.4-2.8
								c1.4-1.2-0.8-2-3.2-0.8c-2.4,1.2-0.8,1-2.4,0.8c-1.6,0,0-2.4,1.6-4.1c1.2-1.6,1.2-1.6,2.4-3.4c1.2-1.8,2.4-3.2,3.2-4.3
								c0.4-0.8,0.6-1.8-0.2-1.6c-1,0.2-5.1,4.3-6.1,5.1c-1,0.6-2.4-0.6-5.5,1c-2.8,1.6-4.1,6.3-4.9,7.7
								c-0.8,1.4-30.2,18.7-33.7,18.5c-3.7-0.2-31-6.7-39.6-6.3C166.3,563.7,172.4,577.1,172.4,577.1z"/>
							<path class="st24" d="M186.2,578.9c11.6,1.4,27,2.6,30.8,0.6c6.5-3.2,27.6-21.3,27.6-21.3l3.2-2.2c0.6-0.4,1.2-0.6,1.8-0.6
								s1.8-0.2,3.4-0.6c0.8-0.2,1.6-0.6,2.2-1c-2,1-6.1,0.2-7.9,1.2c-2.2,1-17,13.2-23.7,17.5s-9.3,5.7-15.2,5.7
								c-6.1,0-20.3-2.6-20.3-2.6L186.2,578.9z"/>
						</g>
						<path class="st31" d="M180.7,825.8c0,0,1.2,6.1,0.8,10.8c-0.6,3.2-0.2,4.3-0.2,4.3l12.6-0.8c0,0-5.5-2.8-4.7-15.8
							C190.2,811.6,180.7,825.8,180.7,825.8z"/>
						<path class="st16" d="M181.5,837.6c0,0,5.3,2.2,10.8,0.8c6.3,3,10.5,4.5,16.4,5.3c5.7,0.8,4.7,5.7-5.3,4.7
							c-9.7-1-16.6-0.6-18.9-0.6c-2.2,0.2-5.7,0.4-5.9-1.2C178.7,845.1,179.7,837,181.5,837.6z"/>
						<path class="st31" d="M142.3,824.8c0,0,1.2,6.1,0.8,10.8c-0.6,3.2-0.2,4.3-0.2,4.3l12.6-0.8c0,0-5.5-2.8-4.7-15.8
							C151.9,810.4,142.3,824.8,142.3,824.8z"/>
						<path class="st16" d="M143.2,836.6c0,0,5.3,2.2,10.8,0.8c6.3,3,10.6,4.5,16.4,5.3c5.7,0.8,4.7,5.7-5.3,4.7
							c-9.7-1-16.6-0.6-18.9-0.6c-2.2,0.2-5.7,0.4-5.9-1.2C140.3,844.1,141.3,836,143.2,836.6z"/>
						<path class="st32" d="M190.6,646.3c0,0,5.7,84.4,5.9,95.4s0,14.8-0.6,21.5s1.8,63.1,1.8,63.1s-18.9,4.3-23.5-0.2
							c0,0,2.4-61.3,0.4-71.8c-2-10.6-9.9-63.9-9.9-63.9l12.2-54L190.6,646.3z"/>
						<path class="st17" d="M147.2,746.5c2.4-15.6,0.6-79.5,1.2-93.1c0.6-13.6,38.3-5.5,38.3-5.5s-14.2,78.7-15.8,90.3
							c-1.8,11.4-3.7,14.6-4.9,25.6c-1,11-7.7,62.3-7.7,62.3s-21.1,3-22.5-1C133.2,804.5,147.2,746.5,147.2,746.5z"/>
						<path class="st9" d="M182.7,591.1c-0.4,1,0.4,8.3,1.8,17.4c0,0.4,0.2,0.8,0.2,1.2c1.6,11.4,4.1,25.4,5.5,34.1
							c0,0.4,0.2,0.8,0.2,1.2c0.4,2.8,0.8,4.9,1,6.3c0,0-25.2-5.5-45.4,3c0,0,1.6-12.6,6.1-24.3c0.2-0.4,0.2-0.6,0.4-1
							c0.8-2.2,1.8-4.3,2.8-6.3c0-0.2,0.2-0.2,0.2-0.4c0.2-0.2,0.2-0.6,0.4-0.8l0.2-0.2c1.2-3.4,0.8-7.7-0.8-12.6
							c-1.4-4.5-3.7-8.9-6.1-13.4c-1.4-2.6-3-5.1-4.5-7.3l0,0c-4.3-6.3-7.9-10.8-7.9-10.8s-2.4-8.3,2.4-15.6l0,0
							c0.6-0.8,1.2-1.6,2-2.4c2.2-2.2,8.1-4.9,13-6.5c1.2-0.4,2.4-0.8,3.4-1c0.8-0.2,1.6-0.4,2-0.4c2.8-0.2,5.1-0.2,6.7,0.2
							c5.3,1.2,7.1,4.7,15,7.1l17,5.1c0,0-2.2,14.4-0.6,18.7l-12-0.4C186.2,582,183.9,588.2,182.7,591.1z"/>
						<path class="st33" d="M155.9,621.1c3-8.5-4.9-22.9-11.6-33.1l0,0l7.3-7.7c0,0-0.2,12.8,2,17.7
							C156.1,602.9,159.6,613,155.9,621.1z"/>
						<path class="st33" d="M182.7,570.2c0,0,4.9,8.1,3.5,12c12,0.4,12,0.4,12,0.4s-0.8-1.8-0.6-5.3
							C195.7,577.5,188.4,579.3,182.7,570.2z"/>
						<g>
							<path class="st19" d="M172.8,645.7l47.5-1.8c1.2,0,2-0.8,2.2-2l6.5-32.1c0.4-1.6-0.8-3-2.4-3l-47.5,1.8c-1.2,0-2,0.8-2.2,2
								l-6.5,32.1C169.9,644.4,171.2,645.9,172.8,645.7z"/>
							<path class="st7" d="M172.6,644.7l47.1-1.8c0.6,0,1.2-0.6,1.4-1.2l6.5-31.7c0.2-1-0.6-1.8-1.4-1.8l-46.1,1.8
								c-1,0-2,0.8-2.2,1.8l-6.5,31.5C171.4,644,171.8,644.7,172.6,644.7z"/>
							<path class="st15" d="M168.9,628.4l-0.4,2l-1-0.2l-0.6,2.8c0,0-0.8-0.2-2.2-0.4l0,0l0,0c-2.4-0.4-6.9-1.2-12.6-2.6
								c-3.9-0.8-8.1-1.8-13-3.2c-6.5-1.6-10.6-4.9-10.8-5.9c-0.2-1.4,0-4.3,0.6-7.7c0.2-1.8,0.6-3.7,0.8-5.7
								c1.2-7.1,2.8-14.6,3.4-17.4c0-0.2,0.2-0.6,0.2-0.6c0-0.2,0-0.4,0-0.4l1.8,0.8l10.1,3.9l-0.6,1.8l-6.3,18.1v0.2
								c0,0.6,0.2,1,0.8,1.2c5.1,1.8,11,4.7,16.2,7.3c4.5,2.2,8.3,4.3,10.6,5.5c0.2,0,0.4,0.2,0.4,0.2c0.6,0.2,1,0.4,1.6,0.4
								C168.5,628.6,168.9,628.4,168.9,628.4z"/>
							<path class="st24" d="M164.7,632.7c-2.4-0.4-6.7-1.2-12.6-2.6c-3.7-0.8-8.1-1.8-13-3.2c-6.5-1.6-10.6-4.9-10.8-5.9
								c-0.2-1.4,0-4.3,0.6-7.7c1.2-8.1,3.4-19.7,4.3-23.1c0-0.2,0-0.6,0.2-0.6l2.6,1.2c0,0,0,0.4-0.2,1.2c-0.8,3.7-3.2,15-4.5,21.7
								c-0.4,2.2-0.6,3.9-0.6,4.7c0.2,3.2,2,3.7,4.3,4.7c1.2,0.6,9.9,3.5,17.7,5.9C158.4,630.9,163.6,632.5,164.7,632.7z"/>
							<path class="st15" d="M165.9,628c0,0,1.2,0.2,1.8,0.2s0.8-0.2,0.8-0.2s2.8-1.8,5.1-2.2l-0.4,2c0,0,3.2,1.8,4.3,2.4
								c0,0,1,0.4,1.4,0.6c0.4,0.2,4.3-0.2,5.1-0.2s1.4,0.6,1.4,1c0,0,0,0.2-0.6,0.4c0,0-0.4,0-0.6,0c0.4,0,0.8,0,1,0
								c0.8,0,1.4,0.6,1.4,1c0,0,0,0.2-0.6,0.4c-0.2,0-0.8,0.2-1.6,0.2c0.6,0.2,1,0.6,1,1c0,0,0,0.2-0.6,0.4c-0.2,0-0.8,0.2-1.8,0.2
								c0.2,0.2,0.4,0.4,0.4,0.8c0,0,0,0.2-0.6,0.4c-0.4,0-7.1,1.2-7.7,1c-1.2-0.2-5.9-3.7-6.1-3.9c-0.8-0.6-2-1-2-1L165.9,628z"/>
						</g>
						<path class="st9" d="M153.3,579.5c-2.6,9.1-3.9,14-4.3,15.8c-0.2,0.6-0.2,0.8-0.2,0.8s-1.6,0-4.1-0.4
							c-2.6-0.6-5.9-1.6-9.1-3.7c-0.2-0.2-0.4-0.2-0.6-0.4c-0.6-0.4-1.2-0.8-1.6-1.4c-1-0.8-1.8-1.8-2.6-3c0,0,2.8-17.9,8.7-25.6
							l0,0c1-1.4,2.2-2.4,3.7-3c0.2,0,0.4-0.2,0.6-0.2c3-1,5.7,0,7.7,2.4c1.8,2.2,2.8,5.3,3.2,9.1
							C154.5,573,154.3,576.3,153.3,579.5z"/>
						<path class="st15" d="M173.2,546.9c-2.2,1.2-4.5,1.6-6.9,1.6c0,1,0,2,0.2,3c0.6,0.2,0.8,0.2,1.2,0.4c0.8,0.4,0.4,2,0.4,2.6
							c-0.4,3-3.2,4.3-6.1,3.4c-2.6-0.8-3.9-3.9-4.7-6.3c-0.4-1-2.4-2-2.4-3.9c0-0.6,0-1.2,0-1.8c-1.2-0.4-2-0.8-2-0.8
							s-0.2-3-0.4-7.3c0-1.2,0-2.4,0-3.9c0-6.1,0.6-13,2.8-16.4c2.6-4.3,9.7-3.7,14.6-2.4c3,0.6,5.1,1.6,5.1,1.6
							S181.7,542.2,173.2,546.9z"/>
						<path class="st34" d="M166.7,519.9c0,0,0.8,4.9-2.8,7.9c-3.9,3-10.1,4.7-10.3,8.5c0,2.4,1.8,4.5,1.8,4.5s-4.3-0.2-4.5-0.4
							s-2.2-9.3-2.2-9.3s8.5-9.9,9.7-10.6C159.2,519.9,166.7,519.9,166.7,519.9z"/>
						<path class="st19" d="M170.1,515.2c-4.9-1.2-12-1.8-14.6,2.4c-2.2,3.5-2.8,10.3-2.8,16.4c-0.6,1-0.8,2.2,0,3.9
							c0,4.3,0.4,7.3,0.4,7.3s0.8,0.4,2,1c0,0.6,0,1.2,0,1.8c0,1.8,0.2,3.5,0.2,4.7c-4.5,1.4-9.7,3.9-11.8,5.9
							c-0.2,0-0.4,0.2-0.6,0.2c-1.4,0.6-2.6,1.6-3.7,3l0,0c-5.9,7.7-8.7,25.6-8.7,25.6c0.8,1,1.8,2,2.6,3
							c-0.6,2.6-2.2,10.3-3.4,17.5c-2-0.8-4.3-2-6.1-3.7c-6.9-5.5-8.3-16.4-3.2-23.7c3.9-5.5,3.7-9.1,3.2-10.3
							c-5.3-16.4,2-28.2,10.6-33.3c3.4-2,5.7-5.9,5.7-10.1c0-4.7,0.8-10.1,4.3-14c4.9-5.7,10.6-7.1,15.4-6.5
							c4.1,0.6,8.9,3.4,11.2,7.1C171.2,513.8,170.7,514.4,170.1,515.2z"/>
						<path class="st19" d="M159,549.9c0,0.6-0.2,1.2-0.4,1.6c-1,0.2-2,0.6-3.2,1c0-1-0.2-2.6-0.2-4.7c0-0.6,0-1.2,0-1.8
							c-1.2-0.4-2-0.8-2-0.8s-0.2-3-0.4-7.3c0.2,0.6,0.8,1.2,1.4,1.8C154.1,539.8,159.2,544,159,549.9z"/>
						<path class="st19" d="M170.1,515.2c-1.6,1.6-4.9,3.4-4.7,5.9c0.2,6.5-6.5,9.3-11.6,12c-0.4,0.2-0.8,0.6-1.2,1
							c0-6.1,0.6-13,2.8-16.4C158.2,513.2,165.3,514,170.1,515.2z"/>
						<path class="st19" d="M180.1,508.7c3.7,2.6,3.7,8.3,0.2,11.2c-3.4,2.8-9.3,4.7-18.3,0.4c-11-5.1-8.1-14.2-1-14
							C174.6,510.3,176,505.5,180.1,508.7z"/>
					</g>
				</g>
			</g>
			<path class="st19" d="M158.4,546.4c0,0,5.3,14.8-18.3,11.8c-19.7-2.4-16.4,25.2-16.4,25.2l7.5-16.6l9.1-12.2l4.9-5.5L158.4,546.4
				z"/>
		</g>
	</g>
</g>
</svg>
