<?xml version="1.0" encoding="utf-8"?>
<!-- Generator: Adobe Illustrator 23.0.1, SVG Export Plug-In . SVG Version: 6.00 Build 0)  -->
<svg version="1.1" id="Layer_1" xmlns="http://www.w3.org/2000/svg" xmlns:xlink="http://www.w3.org/1999/xlink" x="0px" y="0px"
	 viewBox="0 0 500 400" style="enable-background:new 0 0 500 400;" xml:space="preserve">
<style type="text/css">
	.st0{fill:#F9F5FF;}
	.st1{fill:#D7D7F4;}
	.st2{fill:#F59103;}
	.st3{opacity:0.4;fill:#46CCCC;enable-background:new    ;}
	.st4{opacity:0.4;fill:#48CC90;enable-background:new    ;}
	.st5{fill:#5439F7;}
	.st6{opacity:0.5;fill:#7BCAFF;enable-background:new    ;}
	.st7{fill:#D3D3D3;}
	.st8{fill:#F2F2F2;}
	.st9{fill:#F9F4EA;}
	.st10{fill:#BBCEFF;}
	.st11{fill:#F6F3FF;}
	.st12{opacity:0.6;}
	.st13{fill:#7BCAFF;}
	.st14{opacity:0.6;fill:#7BCAFF;enable-background:new    ;}
	.st15{fill:#44CC88;}
	.st16{fill:#EDF4FC;}
	.st17{fill:#FFC550;}
	.st18{fill:#A6EDC8;}
	.st19{opacity:0.4;fill:#375E82;enable-background:new    ;}
	.st20{fill:#38464C;}
	.st21{fill:#676772;}
	.st22{opacity:0.6;fill:#BDE5F2;enable-background:new    ;}
	.st23{opacity:0.3;fill:#E3FBFF;enable-background:new    ;}
	.st24{fill:#375E82;}
	.st25{fill:#D1D9FE;}
	.st26{opacity:0.5;fill:#ABB2B7;enable-background:new    ;}
	.st27{opacity:0.5;fill:#CAD3DB;enable-background:new    ;}
	.st28{fill:#FFFFFF;}
	.st29{fill:#32A066;}
	.st30{fill:#FFAF50;}
	.st31{fill:#844500;}
	.st32{fill:#874A00;}
	.st33{opacity:0.4;}
	.st34{fill:#E2E2E2;}
	.st35{fill:#D6DDEA;}
	.st36{fill:#31AF6D;}
	.st37{fill:#4400FF;}
	.st38{fill:#FFAF84;}
	.st39{fill:#2E2947;}
	.st40{fill:#ED8C62;}
	.st41{fill:#454068;}
	.st42{fill:#370BD8;}
	.st43{fill:#332F4F;}
	.st44{fill:#35B773;}
</style>
<g>
	<path class="st0" d="M110.5,268.2c3.6,7.5,17.3,36.2,49.8,51c6.9,3.1,39.4,17.9,66.8,4.4c36.2-17.9,24.7-66.1,58.4-90.3
		c29-20.8,60.5,17.6,95.3-1.4c18.2-9.9,32.7-31.3,33.1-50.5c1.4-59.8-132.3-160.2-230.8-111.6C111.5,105.2,81.8,208.1,110.5,268.2z"
		/>
	<path class="st1" d="M376.6,308.7c-11.1,0-22.1-1.7-32.8-5.3c-37.3-12.7-66-49.7-76.9-99c-8.3-38-3.5-73.4,12.1-88.2
		c10.6-10.1,30.4-14.2,46.1-9.5c14.9,4.4,21.3,16.1,27.5,27.4c6,11,11.7,21.4,24.8,23.6c14.8,2.5,27.1-3.6,39.1-9.5
		c13.5-6.6,26.2-12.9,41.8-7.6c14.5,4.9,26.7,18.8,34.3,39.1c4.4,11.8,7.9,31-0.7,55.2l0,0C478,274,427.2,308.7,376.6,308.7z
		 M311.4,106.3c-11.8,0-23.9,4-31.3,11c-15.2,14.5-19.9,49.3-11.7,86.8c10.7,48.7,39.1,85.3,75.9,97.8
		c58.7,20,129.4-20.5,146.2-67.6c8.4-23.8,5-42.6,0.7-54.2c-7.4-19.8-19.2-33.4-33.3-38.2c-15-5.1-27.4,1-40.6,7.6
		c-12.2,6-24.8,12.2-40,9.7c-13.9-2.3-19.7-13-25.9-24.4c-6-11-12.3-22.4-26.6-26.7C320.5,106.9,315.9,106.3,311.4,106.3z"/>
</g>
<g>
	<g>
		<path class="st2" d="M212.2,119.2l-5.6-5.6l2.1-2.4c-1-1.6-1.6-3.2-2.1-5l-3.2-0.2v-7.9l3.2-0.2c0.4-1.7,1.1-3.4,2.1-5l-2.1-2.4
			l5.6-5.6l2.4,2.1c1.6-1,3.2-1.6,5-2.1l0.2-3.2h7.9l0.2,3.2c1.7,0.4,3.4,1.1,5,2.1l2.4-2.1l5.6,5.6l-2.1,2.4c1,1.6,1.6,3.2,2.1,5
			l3.2,0.2v7.9l-3.2,0.2c-0.4,1.7-1.1,3.4-2.1,5l2.1,2.4l-5.6,5.6l-2.4-2.1c-1.6,1-3.2,1.6-5,2.1l-0.2,3.2h-7.9l-0.2-3.2
			c-1.7-0.4-3.4-1.1-5-2.1L212.2,119.2z M227.3,108c0.5-0.3,1-0.7,1.4-1.1s0.8-0.9,1.1-1.4c1.2-2.1,1.2-4.8,0-6.9
			c-0.3-0.5-0.7-1-1.1-1.4c-0.4-0.4-0.9-0.8-1.4-1.1c-2.1-1.2-4.8-1.2-6.9,0c-0.5,0.3-1,0.7-1.4,1.1s-0.8,0.9-1.1,1.4
			c-1.2,2.1-1.2,4.8,0,6.9c0.3,0.5,0.7,1,1.1,1.4c0.4,0.4,0.9,0.8,1.4,1.1C222.5,109.2,225.1,109.2,227.3,108z"/>
		<path class="st3" d="M186,97l-1.7-3.8l1.5-0.8c-0.2-1-0.2-1.9,0-2.8l-1.5-0.7l1.5-3.9l1.6,0.5c0.5-0.8,1.2-1.5,2-2l-0.5-1.6
			l3.8-1.7l0.8,1.5c1-0.2,1.9-0.2,2.8,0l0.7-1.5l3.9,1.5l-0.5,1.6c0.8,0.5,1.5,1.2,2,2l1.6-0.5l1.7,3.8l-1.5,0.8
			c0.2,1,0.2,1.9,0,2.8l1.5,0.7l-1.5,3.9l-1.6-0.5c-0.5,0.8-1.2,1.5-2,2l0.5,1.6l-3.8,1.7l-0.8-1.5c-1,0.2-1.9,0.2-2.8,0l-0.7,1.5
			l-3.9-1.5l0.5-1.6c-0.8-0.5-1.5-1.2-2-2L186,97z M195.6,94.4c0.3,0,0.6-0.1,0.9-0.3c0.3-0.1,0.6-0.3,0.8-0.5
			c1-0.8,1.5-2.1,1.3-3.4c0-0.3-0.1-0.6-0.3-0.9c-0.1-0.3-0.3-0.6-0.5-0.8c-0.8-1-2.1-1.5-3.4-1.3c-0.3,0-0.6,0.1-0.9,0.3
			c-0.3,0.1-0.6,0.3-0.8,0.5c-1,0.8-1.5,2.1-1.3,3.4c0,0.3,0.1,0.6,0.3,0.9c0.1,0.3,0.3,0.6,0.5,0.8C193,94.1,194.3,94.6,195.6,94.4
			z"/>
	</g>
	<g>
		<path class="st4" d="M316.2,76.4c-1.4,0-2.6-1.1-2.6-2.6s1.1-2.6,2.6-2.6s2.6,1.1,2.6,2.6S317.6,76.4,316.2,76.4z"/>
		<path class="st3" d="M140.4,203.8c-2.2,0-4-1.8-4-4s1.8-4,4-4s4,1.8,4,4S142.6,203.8,140.4,203.8z M140.4,197.3
			c-1.4,0-2.5,1.1-2.5,2.5s1.1,2.5,2.5,2.5s2.5-1.1,2.5-2.5C142.9,198.4,141.8,197.3,140.4,197.3z"/>
		<path class="st3" d="M308.6,82.8v-1.4h1.5c0.7,0,1.2-0.5,1.2-1.2s-0.5-1.2-1.2-1.2h-1.5v-1.4c0-0.7-0.5-1.2-1.2-1.2
			s-1.2,0.5-1.2,1.2V79h-1.4c-0.7,0-1.2,0.5-1.2,1.2s0.5,1.2,1.2,1.2h1.4v1.4c0,0.7,0.5,1.2,1.2,1.2C308.1,84,308.6,83.5,308.6,82.8
			z"/>
		<path class="st4" d="M135.9,189.5c-0.7,0-1.3-0.6-1.3-1.3s0.6-1.3,1.3-1.3s1.3,0.6,1.3,1.3S136.6,189.5,135.9,189.5z"/>
	</g>
	<g>
		<path class="st5" d="M438,267.3c0.3,4.8-3.4,8.9-8.2,9.2l-91.7,5.3l-8.4,0.5l-5.6,0.3l-8.5,0.5l-13.5,0.8l-11.1,0.6l-4.7,0.3
			l-11.1,0.6l-87.9,5.1c-4.8,0.3-8.9-3.4-9.2-8.2l-9.3-160.5l259.9-15.1L438,267.3z"/>
		<path class="st6" d="M407.7,260.2L178.9,283c-8.2,0.8-15.4-5.2-16.3-13.3l-12.2-122.2c-0.8-8.2,5.2-15.4,13.3-16.3l228.8-22.8
			c8.2-0.8,15.4,5.2,16.3,13.3L421,244C421.8,252.1,415.8,259.4,407.7,260.2z"/>
		<path class="st6" d="M316.5,272h-113c-2.7,0-4.9-2.2-4.9-4.9V141.7c0-2.7,2.2-4.9,4.9-4.9h113.1c2.7,0,4.9,2.2,4.9,4.9V267
			C321.5,269.8,319.3,272,316.5,272z"/>
		<g>
			<path class="st7" d="M428.6,106.8l-259.9,15.1l-1.2-20.8c-0.1-2,1.4-3.7,3.4-3.8l252.7-14.7c2-0.1,3.7,1.4,3.8,3.4L428.6,106.8z"
				/>
			
				<rect x="172.8" y="101.2" transform="matrix(0.9983 -5.815738e-02 5.815738e-02 0.9983 -5.6164 17.5176)" class="st8" width="250.7" height="8.1"/>
			
				<rect x="172.5" y="101.4" transform="matrix(0.9983 -5.803978e-02 5.803978e-02 0.9983 -5.7127 10.3081)" class="st9" width="4.2" height="4.2"/>
			
				<rect x="180" y="101" transform="matrix(0.9983 -5.823196e-02 5.823196e-02 0.9983 -5.6947 10.779)" class="st9" width="4.2" height="4.2"/>
			
				<rect x="187.4" y="100.6" transform="matrix(0.9983 -5.823218e-02 5.823218e-02 0.9983 -5.6589 11.2092)" class="st9" width="4.2" height="4.2"/>
		</g>
		<path class="st10" d="M193.3,171.9c-1.8,0-3.4-1.4-3.5-3.3l-1.1-18.4c-0.1-0.9,0.3-1.8,0.9-2.5c0.6-0.7,1.5-1.1,2.4-1.2l108.7-6.3
			c1.9-0.1,3.6,1.4,3.7,3.3l1.1,18.4c0.1,0.9-0.3,1.8-0.9,2.5s-1.5,1.1-2.4,1.2l-108.7,6.3C193.4,171.9,193.4,171.9,193.3,171.9z
			 M300.9,141.9h-0.1l-108.7,6.3c-0.5,0-0.9,0.2-1.2,0.6c-0.3,0.4-0.5,0.8-0.5,1.3l1.1,18.4c0.1,1,0.9,1.8,1.9,1.7l108.7-6.3
			c0.5,0,0.9-0.2,1.2-0.6c0.3-0.4,0.5-0.8,0.5-1.3l-1.1-18.4C302.6,142.6,301.8,141.9,300.9,141.9z"/>
		<path class="st10" d="M195.1,203.1c-1.8,0-3.4-1.4-3.5-3.3l-1.1-18.4c-0.1-1.9,1.4-3.6,3.3-3.7l108.7-6.3c1.9-0.1,3.6,1.4,3.7,3.3
			l1.1,18.4c0.1,1.9-1.4,3.6-3.3,3.7l-108.7,6.3C195.2,203.1,195.2,203.1,195.1,203.1z M302.7,173.1h-0.1l-108.7,6.3
			c-1,0.1-1.7,0.9-1.7,1.9l1.1,18.4c0.1,1,0.9,1.8,1.9,1.7l108.7-6.3c1-0.1,1.7-0.9,1.7-1.9l-1.1-18.4
			C304.4,173.9,303.7,173.1,302.7,173.1z"/>
		<path class="st11" d="M297.2,193.6l-108.8-1.8c-1.5,0-2.6-1.2-2.6-2.7l0.3-18.4c0-1.5,1.2-2.6,2.7-2.6l108.8,1.8
			c1.5,0,2.6,1.2,2.6,2.7l-0.3,18.4C299.9,192.5,298.7,193.6,297.2,193.6z"/>
		<path class="st10" d="M196.9,234.3c-0.9,0-1.7-0.3-2.3-0.9c-0.7-0.6-1.1-1.5-1.2-2.4l-1.1-18.4c-0.1-0.9,0.3-1.8,0.9-2.5
			c0.6-0.7,1.5-1.1,2.4-1.2l108.7-6.3c1.9-0.1,3.6,1.4,3.7,3.3l1.1,18.4c0.1,1.9-1.4,3.6-3.3,3.7l-108.7,6.3
			C197.1,234.3,197,234.3,196.9,234.3z M304.5,204.3h-0.1l-108.7,6.3c-0.5,0-0.9,0.2-1.2,0.6c-0.3,0.4-0.5,0.8-0.5,1.3l1.1,18.4
			c0.1,1,0.9,1.7,1.9,1.7l108.7-6.3c1-0.1,1.7-0.9,1.7-1.9l-1.1-18.4C306.3,205.1,305.5,204.3,304.5,204.3z"/>
		<path class="st3" d="M451.4,221.9l-102.1-5.8c-3-0.2-5.4-2.8-5.2-5.8L351.7,76c0.2-3,2.8-5.4,5.8-5.2l102.1,5.8
			c3,0.2,5.4,2.8,5.2,5.8l-7.6,134.3C457,219.7,454.4,222.1,451.4,221.9z"/>
		<path class="st10" d="M198.7,265.6c-0.9,0-1.7-0.3-2.3-0.9c-0.7-0.6-1.1-1.5-1.2-2.4l-1.1-18.4c-0.1-0.9,0.3-1.8,0.9-2.5
			c0.6-0.7,1.5-1.1,2.4-1.2l108.7-6.3c1-0.1,1.8,0.3,2.5,0.9c0.7,0.6,1.1,1.5,1.2,2.4l1.1,18.4c0.1,1.9-1.4,3.6-3.3,3.7l-108.7,6.3
			C198.9,265.6,198.8,265.6,198.7,265.6z M306.3,235.5h-0.1l-108.7,6.3c-0.5,0-0.9,0.2-1.2,0.6c-0.3,0.4-0.5,0.8-0.5,1.3l1.1,18.4
			c0.1,1,0.9,1.7,1.9,1.7l108.7-6.3c1-0.1,1.7-0.9,1.7-1.9l-1.1-18.4c0-0.5-0.2-0.9-0.6-1.2C307.2,235.7,306.8,235.5,306.3,235.5z"
			/>
		<g class="st12">
			
				<rect x="213.3" y="151" transform="matrix(1.626736e-02 -0.9999 0.9999 1.626736e-02 37.2328 385.7528)" class="st13" width="2.7" height="45.9"/>
			
				<rect x="213.2" y="155.7" transform="matrix(1.626736e-02 -0.9999 0.9999 1.626736e-02 32.4355 390.2794)" class="st13" width="2.7" height="45.9"/>
			
				<rect x="200.4" y="173.1" transform="matrix(1.628104e-02 -0.9999 0.9999 1.628104e-02 15.2398 382.0027)" class="st13" width="2.7" height="20.3"/>
		</g>
		
			<rect x="265.1" y="173.5" transform="matrix(1.627416e-02 -0.9999 0.9999 1.627416e-02 87.2115 448.0536)" class="st14" width="12.4" height="12.4"/>
		
			<rect x="279.5" y="173.7" transform="matrix(1.628859e-02 -0.9999 0.9999 1.628859e-02 101.1745 462.6475)" class="st14" width="12.4" height="12.4"/>
		<g>
			
				<rect x="392.8" y="212" transform="matrix(8.324276e-03 -1 1 8.324276e-03 211.1507 638.6697)" class="st15" width="69.6" height="1.7"/>
			
				<rect x="339.7" y="234.5" transform="matrix(8.325068e-03 -1 1 8.325068e-03 113.1412 584.7162)" class="st16" width="23.4" height="1.7"/>
			
				<rect x="364.9" y="222" transform="matrix(8.353097e-03 -1 1 8.353097e-03 163.3122 610.4121)" class="st16" width="49.1" height="1.7"/>
			<path class="st17" d="M427.5,231.4h-0.1c-10.2-0.1-15.1-11.3-19.9-22.2c-4.7-10.8-9.2-21-18.2-21h-0.1
				c-8.9,0-13.5,10.1-18.4,20.7c-4.9,10.7-10,21.8-20.1,21.8h-0.1v-1.9h0.1c8.9,0,13.5-10.1,18.4-20.7c4.9-10.7,10-21.8,20.1-21.8
				h0.1c10.2,0.1,15.1,11.3,19.9,22.2c4.7,10.8,9.2,21,18.2,21h0.1c8.9,0,13.5-10.1,18.4-20.7c4.9-10.7,10-21.8,20.1-21.8h0.1v1.9
				H466c-8.9,0-13.5,10.1-18.4,20.7C442.7,220.3,437.6,231.4,427.5,231.4z"/>
		</g>
		<g>
			
				<rect x="408.2" y="165.2" transform="matrix(5.667860e-02 -0.9984 0.9984 5.667860e-02 216.1446 574.1442)" class="st18" width="7.5" height="15"/>
			
				<rect x="381.7" y="163.7" transform="matrix(5.670176e-02 -0.9984 0.9984 5.670176e-02 192.6707 546.2832)" class="st18" width="7.5" height="15"/>
			
				<rect x="355.1" y="162.3" transform="matrix(5.669599e-02 -0.9984 0.9984 5.669599e-02 169.0196 518.4074)" class="st18" width="7.5" height="15"/>
		</g>
		
			<rect x="205.5" y="214.7" transform="matrix(0.9983 -5.813805e-02 5.813805e-02 0.9983 -12.2 13.6594)" class="st6" width="46.3" height="3.6"/>
		
			<rect x="205.8" y="221.6" transform="matrix(0.9983 -5.819678e-02 5.819678e-02 0.9983 -12.6258 13.2633)" class="st6" width="31.2" height="3.6"/>
		
			<rect x="240.6" y="220.3" transform="matrix(0.9983 -5.806816e-02 5.806816e-02 0.9983 -12.4842 14.5723)" class="st6" width="7.8" height="3.6"/>
		
			<rect x="201.9" y="153.1" transform="matrix(0.9983 -5.815447e-02 5.815447e-02 0.9983 -8.6272 13.3497)" class="st6" width="46.3" height="3.6"/>
		
			<rect x="202.2" y="160" transform="matrix(0.9983 -5.815966e-02 5.815966e-02 0.9983 -9.0445 12.8363)" class="st6" width="27.6" height="3.6"/>
		
			<rect x="233.4" y="158.2" transform="matrix(0.9983 -5.814534e-02 5.814534e-02 0.9983 -8.8836 14.6906)" class="st6" width="29.2" height="3.6"/>
		
			<rect x="207.3" y="246.8" transform="matrix(0.9983 -5.810313e-02 5.810313e-02 0.9983 -14.0784 13.0021)" class="st6" width="18.5" height="3.6"/>
		
			<rect x="229.2" y="245.5" transform="matrix(0.9983 -5.810313e-02 5.810313e-02 0.9983 -13.9659 14.2723)" class="st6" width="18.5" height="3.6"/>
		
			<rect x="207.7" y="252.8" transform="matrix(0.9983 -5.819675e-02 5.819675e-02 0.9983 -14.4383 13.4268)" class="st6" width="31.2" height="3.6"/>
		
			<rect x="242.4" y="250.8" transform="matrix(0.9983 -5.814112e-02 5.814112e-02 0.9983 -14.2503 15.413)" class="st6" width="30.7" height="3.6"/>
		<path class="st19" d="M233.3,162.6c-7.6-6.8-17.4-10.2-27.6-9.6c-10.2,0.6-19.5,5.1-26.3,12.7c-3.4,3.8-5.9,8.1-7.5,12.6
			c-1.7,4.8-2.4,9.9-2.1,14.9c0.3,5,1.6,10,3.8,14.6c1.6,3.3,3.7,6.3,6.2,9.1l-3.5,4l-0.8-0.7l-1.1,1.1l0.8,14.4l7.4-9.1l-0.8-0.7
			l3.6-4c7.3,5.3,16.1,7.7,24.7,7.2c9.7-0.6,19.3-4.9,26.3-12.7c6.8-7.6,10.2-17.4,9.6-27.6C245.5,178.8,240.9,169.4,233.3,162.6z
			 M228.9,209.8c-10.3,11.5-28,12.6-39.5,2.3s-12.6-28-2.3-39.5c5-5.6,11.8-8.9,19.3-9.4c7.5-0.4,14.7,2.1,20.2,7
			c5.6,5,8.9,11.8,9.4,19.3C236.4,197,233.9,204.2,228.9,209.8z"/>
		<g>
			
				<rect x="155.1" y="199.7" transform="matrix(0.6648 -0.747 0.747 0.6648 -97.7072 189.0632)" class="st20" width="13.5" height="7.4"/>
			<path class="st21" d="M128,241.4L128,241.4c2.8,2.5,7.1,2.1,9.4-0.8l25.7-31.5l-7.2-6.4L127.6,232
				C125,234.6,125.2,238.9,128,241.4z"/>
			<path class="st22" d="M155.3,175.6c1.1,18.2,16.7,32.1,34.9,31.1c7.8-0.5,14.9-3.6,20.3-8.5c1.9-1.7,3.6-3.7,5.1-5.8
				c0.9-1.3,1.7-2.7,2.4-4.1c2.1-4.2,3.3-9,3.4-13.9c0-0.9,0-1.7,0-2.6c-1.1-18.2-16.7-32.2-34.9-31.1c-0.9,0.1-1.8,0.1-2.6,0.3
				c-4.9,0.7-9.5,2.4-13.4,5c-1.3,0.9-2.6,1.8-3.8,2.9c-1.9,1.7-3.7,3.6-5.2,5.7C157.2,160.3,154.9,167.7,155.3,175.6z"/>
			<path class="st23" d="M170.4,145.8l47.6,42.4c2.1-4.2,3.3-9,3.4-13.9l-37.6-33.4C178.9,141.5,174.3,143.3,170.4,145.8z"/>
			<path class="st23" d="M161.4,154.4l49.1,43.7c1.9-1.7,3.6-3.7,5.1-5.8l-49-43.6C164.6,150.4,162.9,152.3,161.4,154.4z"/>
			<path class="st24" d="M188.3,211.7c-9,0-18.1-3.2-25.3-9.6c-15.7-14-17.1-38.1-3.1-53.8c6.8-7.6,16.1-12.1,26.3-12.7
				c10.2-0.6,20,2.8,27.6,9.6s12.1,16.1,12.7,26.3c0.6,10.2-2.8,20-9.6,27.6C209.3,207.4,198.8,211.7,188.3,211.7z M188.4,145.6
				c-0.6,0-1.1,0-1.7,0c-7.5,0.4-14.3,3.8-19.3,9.3c-5,5.6-7.5,12.8-7,20.2c0.4,7.5,3.8,14.3,9.3,19.3c11.5,10.3,29.3,9.2,39.5-2.3
				c5-5.6,7.5-12.8,7-20.2c-0.4-7.5-3.8-14.3-9.3-19.3C201.8,148.1,195.2,145.6,188.4,145.6z"/>
		</g>
		<g>
			<g>
				<path class="st2" d="M398.4,158.6c13.2,6.2,29.4,4.3,41-6c5.6-5,9.3-11.3,11.2-18l-18-5c-2.3,8.4-10.2,14.3-19.3,13.8
					c-2.5-0.1-4.8-0.7-6.9-1.7L398.4,158.6z"/>
				<path class="st16" d="M386.3,149.5c0.3,0.3,0.6,0.6,0.9,0.9l13.6-12.9c-3.5-3.6-5.5-8.7-5.2-14.1c0.6-10.4,9.5-18.4,19.9-17.8
					c7.4,0.4,13.6,5.1,16.3,11.5l17.3-7.3c-1.6-3.7-3.7-7.2-6.6-10.4c-13.8-15.5-37.6-16.9-53.1-3
					C373.8,110.2,372.4,134,386.3,149.5z"/>
				<path class="st15" d="M433.2,125.5c-0.1,1.4-0.3,2.7-0.7,4l18,5c2.3-8.1,1.8-16.9-1.6-24.8l-17.3,7.3
					C432.8,119.6,433.4,122.5,433.2,125.5z"/>
				<path class="st25" d="M387.1,150.4c3.3,3.5,7.2,6.2,11.3,8.1l7.9-17c-2.2-1-4.1-2.4-5.7-4.1L387.1,150.4z"/>
			</g>
			<g>
				<path class="st16" d="M360.5,98.4c2.4-0.8,5.2-0.2,7,1.9c0.9,1,1.4,2.2,1.6,3.4l-3.3,0.5c-0.2-1.5-1.5-2.7-3.1-2.8
					c-0.4,0-0.9,0-1.2,0.2L360.5,98.4z"/>
				<path class="st17" d="M358.2,99.8c0.1,0,0.1-0.1,0.2-0.1l2.1,2.5c-0.7,0.6-1.1,1.4-1.2,2.4c-0.1,1.8,1.3,3.4,3.1,3.5
					c1.3,0.1,2.5-0.6,3.1-1.7l2.9,1.6c-0.3,0.6-0.8,1.2-1.4,1.7c-2.7,2.4-6.9,2.2-9.3-0.5C355.2,106.4,355.5,102.2,358.2,99.8z"/>
				<path class="st17" d="M365.9,104.9c0-0.2,0-0.5,0-0.7l3.3-0.5c0.2,1.5,0,3-0.8,4.3l-2.9-1.6
					C365.7,105.9,365.9,105.4,365.9,104.9z"/>
				<path class="st15" d="M358.4,99.6c0.6-0.5,1.4-0.9,2.1-1.2l1,3.1c-0.4,0.1-0.8,0.3-1.1,0.6L358.4,99.6z"/>
			</g>
			<g>
				<path class="st15" d="M366.2,147.6c-1.1,2.3-3.6,3.8-6.3,3.6c-1.3-0.1-2.5-0.5-3.5-1.2l1.9-2.7c1.2,0.9,3,0.8,4.2-0.2
					c0.3-0.3,0.6-0.6,0.8-1L366.2,147.6z"/>
				<path class="st25" d="M366.9,145c0,0.1,0,0.1,0,0.2l-3.3-0.3c0.1-0.9-0.2-1.8-0.8-2.5c-1.2-1.4-3.3-1.5-4.7-0.3
					c-1,0.9-1.3,2.2-1,3.4l-3.2,0.9c-0.2-0.7-0.3-1.4-0.2-2.1c0.2-3.6,3.3-6.4,7-6.2C364.4,138.3,367.1,141.4,366.9,145z"/>
				<path class="st16" d="M357.9,146.9c0.2,0.2,0.3,0.3,0.5,0.5l-1.9,2.7c-1.2-0.9-2.1-2.1-2.5-3.6l3.2-0.9
					C357.3,146,357.5,146.5,357.9,146.9z"/>
				<path class="st17" d="M366.9,145.3c-0.1,0.8-0.3,1.6-0.7,2.4l-2.9-1.5c0.2-0.4,0.3-0.8,0.3-1.2L366.9,145.3z"/>
			</g>
			<g>
				<path class="st25" d="M358.5,130.6c-2.3-1.1-3.8-3.6-3.7-6.3c0.1-1.3,0.5-2.5,1.2-3.5l2.7,1.9c-0.9,1.2-0.8,3,0.2,4.2
					c0.3,0.3,0.6,0.6,1,0.8L358.5,130.6z"/>
				<path class="st15" d="M361.1,131.3c-0.1,0-0.1,0-0.2,0l0.3-3.3c0.9,0.1,1.8-0.2,2.5-0.8c1.4-1.2,1.5-3.3,0.3-4.7
					c-0.9-1-2.2-1.3-3.4-1l-0.9-3.2c0.7-0.2,1.4-0.3,2.1-0.2c3.6,0.2,6.4,3.3,6.2,7C367.9,128.7,364.7,131.5,361.1,131.3z"/>
				<path class="st17" d="M359.3,122.2c-0.2,0.2-0.3,0.3-0.5,0.5l-2.7-1.9c0.9-1.2,2.1-2.1,3.6-2.5l0.9,3.2
					C360.1,121.6,359.7,121.8,359.3,122.2z"/>
				<path class="st16" d="M360.9,131.3c-0.8-0.1-1.6-0.3-2.4-0.7l1.5-2.9c0.4,0.2,0.8,0.3,1.2,0.3L360.9,131.3z"/>
			</g>
		</g>
	</g>
	<g>
		<path class="st26" d="M423.5,271.2l-9.8,24.2c-0.5,1.3-2,1.9-3.3,1.4l-33.2-13.4c-1.3-0.5-1.9-2-1.4-3.3l9.8-24.2
			c0.5-1.3,2-1.9,3.3-1.4l33.2,13.4C423.4,268.4,424,269.9,423.5,271.2z"/>
		<path class="st27" d="M425.3,268.4l-8.5,24.7c-0.5,1.3-1.9,2.1-3.3,1.6l-33.9-11.6c-1.3-0.5-2.1-1.9-1.6-3.3l8.5-24.7
			c0.5-1.3,1.9-2.1,3.3-1.6l33.9,11.6C425,265.6,425.7,267,425.3,268.4z"/>
		<path class="st16" d="M427.9,264.5l-6.9,25.2c-0.4,1.4-1.8,2.2-3.1,1.8l-34.6-9.4c-1.4-0.4-2.2-1.8-1.8-3.1l6.9-25.2
			c0.4-1.4,1.8-2.2,3.1-1.8l34.6,9.4C427.4,261.8,428.2,263.2,427.9,264.5z"/>
		<path class="st2" d="M427.9,264.5l-1.5,5.6l-39.5-10.8l1.5-5.6c0.4-1.4,1.8-2.2,3.1-1.8l34.6,9.4
			C427.4,261.8,428.2,263.2,427.9,264.5z"/>
		
			<rect x="405.3" y="245.1" transform="matrix(0.2634 -0.9647 0.9647 0.2634 43.0645 587.589)" class="st28" width="1.9" height="41"/>
		<path class="st29" d="M400.4,257.6c-0.4,1.6-2.1,2.6-3.8,2.2c-1.6-0.4-2.6-2.1-2.2-3.8c0.4-1.6,2.1-2.6,3.8-2.2
			C399.9,254.3,400.9,256,400.4,257.6z"/>
		<path class="st29" d="M421.4,263.4c-0.4,1.6-2.1,2.6-3.8,2.2c-1.6-0.4-2.6-2.1-2.2-3.8c0.4-1.6,2.1-2.6,3.8-2.2
			C420.9,260,421.8,261.7,421.4,263.4z"/>
		<g>
			<g>
				<path class="st17" d="M397.5,258.9c-0.2,0-0.4,0-0.6-0.1c-1.1-0.3-1.8-1.5-1.5-2.6l1.2-4.4c0.3-1.1,1.5-1.8,2.6-1.5
					s1.8,1.5,1.5,2.6l-1.2,4.4C399.2,258.3,398.4,258.9,397.5,258.9z"/>
				<path class="st17" d="M418.4,264.6c-0.2,0-0.4,0-0.6-0.1c-1.1-0.3-1.8-1.5-1.5-2.6l1.2-4.4c0.3-1.1,1.5-1.8,2.6-1.5
					c1.1,0.3,1.8,1.5,1.5,2.6l-1.2,4.4C420.2,264,419.4,264.6,418.4,264.6z"/>
			</g>
		</g>
		
			<rect x="389.8" y="265.7" transform="matrix(0.2634 -0.9647 0.9647 0.2634 30.1324 574.873)" class="st2" width="3.4" height="4"/>
		<rect x="416.4" y="273" transform="matrix(0.2635 -0.9647 0.9647 0.2635 42.6394 605.8633)" class="st2" width="3.4" height="4"/>
		
			<rect x="409.7" y="271.2" transform="matrix(0.2634 -0.9647 0.9647 0.2634 39.4977 598.1003)" class="st2" width="3.4" height="4"/>
		
			<rect x="403.1" y="269.3" transform="matrix(0.2634 -0.9647 0.9647 0.2634 36.4424 590.3597)" class="st2" width="3.4" height="4"/>
		
			<rect x="396.4" y="267.5" transform="matrix(0.2634 -0.9647 0.9647 0.2634 33.2686 582.5759)" class="st2" width="3.4" height="4"/>
		<rect x="388.4" y="271" transform="matrix(0.2634 -0.9647 0.9647 0.2634 23.97 577.4205)" class="st2" width="3.4" height="4"/>
		
			<rect x="414.9" y="278.3" transform="matrix(0.2634 -0.9647 0.9647 0.2634 36.4717 608.3505)" class="st2" width="3.4" height="4"/>
		
			<rect x="408.3" y="276.5" transform="matrix(0.2634 -0.9647 0.9647 0.2634 33.3353 600.6477)" class="st2" width="3.4" height="4"/>
		
			<rect x="401.6" y="274.6" transform="matrix(0.2635 -0.9647 0.9647 0.2635 30.2118 592.8049)" class="st2" width="3.4" height="4"/>
		<rect x="395" y="272.8" transform="matrix(0.2634 -0.9647 0.9647 0.2634 27.1064 585.1234)" class="st2" width="3.4" height="4"/>
		
			<rect x="386.9" y="276.3" transform="matrix(0.2635 -0.9647 0.9647 0.2635 17.7406 579.8651)" class="st2" width="3.4" height="4"/>
		
			<rect x="413.5" y="283.6" transform="matrix(0.2634 -0.9647 0.9647 0.2634 30.3094 610.8978)" class="st2" width="3.4" height="4"/>
		
			<rect x="406.8" y="281.8" transform="matrix(0.2635 -0.9647 0.9647 0.2635 27.1012 603.0852)" class="st2" width="3.4" height="4"/>
		
			<rect x="400.2" y="279.9" transform="matrix(0.2634 -0.9647 0.9647 0.2634 24.0808 595.3735)" class="st2" width="3.4" height="4"/>
		
			<rect x="393.5" y="278.1" transform="matrix(0.2634 -0.9647 0.9647 0.2634 20.9065 587.5893)" class="st2" width="3.4" height="4"/>
	</g>
	<g>
		<path class="st2" d="M151.3,255.8l3.1,16.2c0.3,1.3,1.5,2.2,2.9,1.9l33.7-6.6c1.3-0.3,2.2-1.5,1.9-2.9l-3.1-16.2
			c-0.3-1.3-1.5-2.2-2.9-2l-33.7,6.6C151.9,253.1,151,254.4,151.3,255.8z"/>
		<path class="st30" d="M151.3,255.8l0.2,0.9l18.4,7.1c2,0.8,4.2,0.3,5.8-1.1l14.4-13.5l-0.2-0.9c-0.3-1.3-1.6-2.2-2.9-2l-33.7,6.6
			C151.9,253.1,151,254.4,151.3,255.8z"/>
		<path class="st31" d="M149.9,274.7c0.6,3.3,3.9,5.5,7.2,4.9s5.5-3.9,4.9-7.2c-0.6-3.3-3.9-5.5-7.2-4.9
			C151.4,268.1,149.2,271.3,149.9,274.7z"/>
	</g>
	<g>
		<path class="st2" d="M237.7,299.7l-10,10l-10-10c-5.5-5.5-5.5-14.5,0-20.1c5.5-5.5,14.5-5.5,20.1,0
			C243.2,285.2,243.2,294.1,237.7,299.7z"/>
		<path class="st32" d="M231.1,293.1c-1.9,1.9-5,1.9-6.9,0s-1.9-5,0-6.9s5-1.9,6.9,0S233,291.2,231.1,293.1z"/>
	</g>
	<g class="st33">
		<path class="st24" d="M316.1,180.5c0-1.2-0.5-2.9-1.5-4.9c-2.8-6-8.9-14.7-12.9-20.3c-0.1-0.2-0.2-0.3-0.4-0.4
			c-0.4-0.8-1.4-1.4-2.4-1.4h-7.1c0.3-1.9,0.3-3.9,0.2-5.4c2.2-1.2,4-3,5.2-5.2c0.5,0.2,1.1,0.1,1.6-0.3c1-0.8,1.6-2,1.6-3.4
			c0-0.9-0.3-1.7-0.7-2.4c0.2-0.8,0.4-1.6,0.4-2.4c0.2-2.8,0-5.8-3.5-7.2c1.4-2.2-4-6.7-8.5-5.2c-10.3,3.6-10.4-0.3-10.4-0.3
			c-4.5,1.3-4.9,5.4-2.9,7.2c-1.2,1.5-1.2,3.5-1.1,5.4c0,0.4,0.1,0.8,0.2,1.3c0,0.5-0.1,0.9-0.1,1.4c0,6.2,4.5,11.3,10.4,12.2
			c0,1.5-0.1,3.1-0.4,4.2H276c-0.9,0-1.6,0.4-2.2,1c-0.3,0.2-0.6,0.4-0.8,0.7c-4.3,5.2-14.5,17.7-15.3,22.2
			c-0.6,3.3,3.4,12.1,7.2,19.6c-0.4,0.3-0.8,0.6-1.1,0.7c-1.7,0.6-2.6,2.5-2,4.2c0.5,1.4,1.8,2.2,3.1,2.2c0.4,0,0.7-0.1,1.1-0.2
			c1.2-0.4,2.3-1.1,3.2-1.8c-0.1,2.9-0.2,4.7-0.2,4.7s-0.4,8.8,0.2,17.8c0.1,3.5,1.3,30.3,2.8,40.6c0.7,4.6,1.9,12.7,3.1,20.4
			l11.1-0.6c-1.2-8.1-2.6-16.7-3.3-21.5c-1.4-9-2.5-33.2-2.7-38.6h4.9c0.2,4.5,1.3,30.3,2.8,40.3c0.7,4.4,1.8,12,3,19.5L302,284
			c-1.2-7.8-2.5-16-3.2-20.5c-1.5-10.1-2.7-39.4-2.8-39.7c0-0.2,0-0.4-0.1-0.6c0.9-2.6,2.1-8.1,0.5-16.4c-0.1-1.2-0.1-2.6-0.1-4.1
			c0.9,0.7,2,1.4,3.1,1.8c0.4,0.1,0.7,0.2,1.1,0.2c1.4,0,2.6-0.8,3.1-2.2c0.6-1.7-0.3-3.6-2-4.2c0,0-0.1,0-0.1-0.1
			c1.8-1.7,3.4-3.2,4.8-4.6C316,184.1,316,181.5,316.1,180.5z M269.7,191.7c-2.8-5.7-5.3-11.5-5.5-13.3c0.5-1.6,3.6-6,7.3-10.9
			C270.8,175.1,270.2,184.2,269.7,191.7z M297,193.4c0.7-9.2,2.1-20.2,3.3-28.6c4.6,6.7,8.6,13.3,9.1,15.3
			C308.4,182.2,302.7,188.1,297,193.4z"/>
		<path class="st24" d="M349.1,215.1c-0.3-0.1-1-0.4-1.8-0.9c2.4-3.7,6.7-11.9,5.6-21.6c-0.8-6.7-11.3-18.6-12.5-19.9
			c-0.5-0.5-1.2-0.8-1.8-0.8c-0.3-0.1-0.6-0.2-0.9-0.2H329c0-1.2,0-2.3,0.1-3.4c6.7-0.2,12.1-5.8,12.1-12.5c0,0,3.6-9.8-9.2-14.3
			c-0.5-0.2-0.9-0.3-1.4-0.4c-0.3-1-1-1.9-2.2-3c-4.9-4.4-14.2-1.8-16.1,4.7c-1.8,6.2,0.5,8.4,2.7,12.6c-0.6,0.7-0.9,1.6-0.9,2.6
			c0,1.2,0.6,2.3,1.4,3.1c0.1,0.1,0.2,0.2,0.4,0.2c-0.7,3.6-2.8,6.9-2.8,6.9s4.1-0.3,7.9-2.4c1,0.8,2.2,1.4,3.4,1.9
			c-0.1,1-0.2,2.5-0.2,4.1h-5.3c-0.7,0-1.4,0.3-1.9,0.7l-0.2,0.2l-0.1,0.1l-0.1,0.1c-0.2,0.3-0.9,1.3-1.8,2.7
			c-2.7,4.1-7.3,11.8-7.9,16.7c0,0.3-0.1,0.7-0.1,1c-0.6,9.4,6.3,17.4,10.1,21.1c-0.5,0.3-1,0.5-1.2,0.6c-1.2,0.5-1.9,1.9-1.4,3.2
			c0.4,1,1.3,1.5,2.3,1.5c0.3,0,0.6,0,0.9-0.2c0.1,0,0.4-0.2,0.8-0.3c-2.7,13.3,1.7,33.8,1.7,33.8h0.4c-0.2,4.6-0.6,8.8-1,11.5
			c-0.6,4.1-2.1,11.3-3.6,18.5l8.5-0.5c1.4-6.5,2.6-12.9,3.2-16.8c0.5-3.1,0.8-7.7,1.1-12.7h5.2c-0.3,4.6-0.7,8.7-1.2,11.5
			c-0.6,4-1.6,10.8-2.7,17.7l8.4-0.5c1-6.3,1.9-12.3,2.4-16c0.5-3.1,0.9-7.7,1.3-12.7h0.8c0.8-3.6,1.5-24.3,1.8-34.9
			c1.4,0.8,2.7,1.4,2.9,1.4c0.3,0.1,0.6,0.2,0.9,0.2c1,0,1.9-0.6,2.3-1.5C351,217,350.3,215.6,349.1,215.1z M320.9,211.7
			c-3.1-2.8-10.4-10.4-9.4-18.8c0.4-3,3.1-8.1,5.6-12.1C319.1,190.9,321.5,202.4,320.9,211.7z M341.8,182.1c3.1,4.1,6,8.6,6.3,11.1
			c0.8,6.6-1.6,12.6-3.6,16.3C344.1,204.2,343.1,191.6,341.8,182.1z"/>
	</g>
	<g>
		<path class="st34" d="M250.1,326.8h102.7c1.3,0,2.4-1.1,2.4-2.4l0,0c0-1.3-1.1-2.4-2.4-2.4H250.1c-1.3,0-2.4,1.1-2.4,2.4l0,0
			C247.7,325.8,248.8,326.8,250.1,326.8z"/>
		<g>
			<g>
				<polygon class="st35" points="294.8,317.4 293.5,307.3 288.7,306.5 291,317.2 				"/>
				<path class="st15" d="M290.1,315.8c-0.3,0-0.6,0.2-0.8,0.4c-1.6,1.4-3.5,3.1-6.5,3.9c-2.7,0.7-1.6,2,1,2c3.8,0,5.4-0.2,7.1-0.1
					c1.7,0,0.6,0.1,4.8,0.1c1.9,0,1.3-3.8,0.3-6.1c-0.3-0.6-0.8-0.9-1.5-0.8L290.1,315.8z"/>
			</g>
			<g>
				<polygon class="st35" points="274.4,317.4 273.1,307.3 268.3,306.5 270.6,317.2 				"/>
				<path class="st15" d="M269.7,315.8c-0.3,0-0.6,0.2-0.8,0.4c-1.6,1.4-6.6,3.8-9.2,4.2c-2.7,0.4-2.9,1.7,1,1.7
					c3.8,0,6.7-0.3,8.4-0.3c1.7,0,1.3,0.3,5.5,0.3c3.2,0,2.2-4.1,1.1-6.1c-0.4-0.6-0.8-0.9-1.5-0.8L269.7,315.8z"/>
			</g>
			<path class="st36" d="M269,115.3c2.8-0.5,8.2,5.2,1.5,13.7c-4.7,6.1-7.2-1.7-7.5-5.1C262.7,120.4,263.1,116.4,269,115.3z"/>
			<path class="st37" d="M267.4,147c-1.6-1.3-3.9-1.1-5.2,0.5c-4.9,5.8-16.3,19.9-17.2,25c-0.8,4.1,5.3,15.4,10.5,24.1l4.6-2.8
				c-6-8.6-6.3-16.5-7.7-20.1c0.9-2.8,9.1-11.7,16-20C269.6,152.1,269,148.3,267.4,147z"/>
			<path class="st38" d="M252.7,203c-1.7-0.6-2.7-1.5-3.3-3c-1.7-4.2,1-3.1,2.9-3.8c1-0.3,2.3-2.6,2.9-3.2c1.3-1.6,3.3-1.9,4.9-0.5
				c1.6,1.3,1.2,3.3,0.4,5.2c-0.4,1.1-1.3,3.3-4.2,4.9C255,203.3,254.2,203.4,252.7,203z"/>
			<path class="st38" d="M283.6,141.4c0,3.2-0.4,7.1-2.2,9.9c-2.3,3.6-2.7,4.3-2.8,4.4c-0.8,1.4-2.3,2.1-3.8,2.1
				c-0.8,0-1.5-0.2-2.2-0.6c-2.1-1.2-2.8-3.9-1.5-6c0,0,0.4-0.6,2.9-4.6c0.4-0.7,0.7-2,0.8-3.4c0.1-2,0-4.3-0.2-5.9
				c-0.4-2.4,1.3-4.6,3.7-5c2.4-0.4,4.6,1.3,5,3.7C283.4,136.7,283.6,138.8,283.6,141.4z"/>
			<path class="st37" d="M294.4,149.1c-2.2,12.5-6.4,43.7-5.5,56.3h-31.2c0,0,1.9-46.3,4.8-57.6c0.4-1.4,1.6-2.3,3-2.3h25.9
				C293.3,145.5,294.7,147.3,294.4,149.1z"/>
			<path class="st39" d="M287.5,225.8c0,0,3.8-7,1.4-20.3h-31.2c0,0-0.4,10.2,0.3,20.3H287.5z"/>
			<path class="st39" d="M291,269.4c-1.7-11.5-1.2-45.5-2-49.4c-0.6-3.4-5.9-3.2-9.3-3.1c-3.4,0.1-6.7,4.7-6.5,8.2
				c0.1,1.4,4.1,34,5.9,46.1c1.3,8.7,7.1,31.7,9.2,41.9l7.9-0.9C294.7,302,292.3,278.1,291,269.4z"/>
			<path class="st39" d="M273.5,269.3c-0.9-11.7-1.4-44.9-1.4-45.2c-0.1-3.4-4.8-5.6-8.2-5.5c-3.4,0.1-6.1,3-6,6.5
				c0.1,1.4,1.4,34,3.2,46.1c1.3,8.7,4.5,32.4,7,42.7l7.1-0.9C273.6,302.8,274.2,278.1,273.5,269.3z"/>
			<path class="st37" d="M294.5,147.7c-1.2-1.7-3.5-2-5.2-0.8s-2.2,4.5-1,6.2c6.7,9.1,13.6,19.9,14.3,22.9
				c-6.6,5.3-3.5,8.9-16.2,17.6l3.3,4.2c18.1-15.2,20.9-20.3,21-21.6C310.8,170.8,300.6,156,294.5,147.7z"/>
			<path class="st40" d="M283.6,141.4c-2.1,1.2-4.5,1.9-7.1,1.9c-0.6,0-1.2,0-1.8-0.1c0.1-2,0-4.3-0.2-5.9c-0.4-2.4,1.3-4.6,3.7-5
				c2.4-0.4,4.6,1.3,5,3.7C283.4,136.7,283.6,138.8,283.6,141.4z"/>
			<path class="st38" d="M263.7,127.3c0,7.7,5.7,14.3,13.4,14.3c6.6,0,14-6.8,14-14.5s-6.2-14-14-14
				C269.4,113.1,263.7,119.6,263.7,127.3z"/>
			<path class="st38" d="M292.9,202.9c-1,0-1.8-0.3-3-1.1c-1.6-1-2.8-2-4.1-3.6c-1.2-1.7-1-3.8,0.6-5.1s3.9-1.1,5.2,0.4
				c0.7,0.8,1.8,2.4,2.7,2.7c3,0.8,4.2,1.7,3.1,3.4C296.5,201.1,294.4,202.9,292.9,202.9z"/>
			<path class="st15" d="M286.8,115.3c-2.8-0.5-8.7,6.1-0.6,13.2c4.5,3.9,6.3-1.2,6.5-4.6C293,120.4,292.7,116.4,286.8,115.3z"/>
			<path class="st15" d="M279.2,110.1c5.4-1.9,11.9,4.1,9.2,6.3c-1.2,1-1.2,0.8-4.2,1.7c-3.1,0.9-16,1.9-19.1,0.4
				c-3.2-1.5-3.2-7.1,2.4-8.8C267.5,109.7,267.6,114.1,279.2,110.1z"/>
			<path class="st38" d="M293.1,129.3c0,1.5-0.7,2.9-1.8,3.9c-1.3,1.1-3.3,0.1-3.3-1.6V127c0-1.7,2-2.7,3.3-1.6
				C292.4,126.4,293.1,127.8,293.1,129.3z"/>
			<path class="st2" d="M282.3,164.1l-6.9-7.7c-0.5-0.6-1.4-0.6-1.9-0.1l-8.5,7.8h3.6l-0.7,6.7c-0.1,0.8,0.6,1.5,1.4,1.5h7.4
				c0.7,0,1.3-0.5,1.4-1.2l0.7-7H282.3z"/>
			<path class="st38" d="M271.1,145.5c-0.7,2.5,1.7,4,5.8,3.4c2.9-0.4,6-1.7,8.4-3.4H271.1z"/>
			<g>
				<path class="st41" d="M293,314c-0.1-0.3-5.5-35.1-6.3-46.3c-0.9-11.8-2.5-41.5-2.5-46.1v-16.8h0.8v16.8c0,4.6,1.6,34.3,2.5,46.1
					c0.8,11.2,6.3,45.9,6.3,46.2L293,314z"/>
				<rect x="272.2" y="204.9" class="st41" width="0.8" height="21.1"/>
				<path class="st41" d="M272.6,221.6c-2.1,0-3.8-1.7-3.8-3.8V205h0.8v12.8c0,1.7,1.4,3.1,3.1,3.1v0.7H272.6z"/>
			</g>
		</g>
		<g>
			<path class="st42" d="M336.4,128.2c-5.5-5-16-2-18.2,5.3c-2.2,7.4,0.9,9.8,3.5,15.1c2.6,5.4-2.7,13.4-2.7,13.4
				s16.2-1.1,16.2-15.4C335.2,137.8,343.1,134.3,336.4,128.2z"/>
			<g>
				<path class="st38" d="M340,179.9c-0.4,0.3-0.9,0.4-1.4,0.4c-0.9,0-1.8-0.5-2.4-1.3c0,0-0.5-0.8-2.8-4.5c-1.9-3-2.1-7.8-1.9-11
					c0.1-1.7,0.3-3,0.3-3.3c0.2-1.5,1.6-2.5,3.1-2.3s2.5,1.6,2.3,3.1c-0.2,1-0.3,2.4-0.3,3.8c-0.1,2.6,0.2,5.4,1.1,6.9
					c2.5,4,2.9,4.6,2.9,4.6C341.7,177.4,341.3,179.1,340,179.9z"/>
				<path class="st38" d="M338.8,225.5c0,1.1-0.5,20.8-1.4,35.5c0,0.2,0,0.3,0,0.5c-0.3,4.1-0.8,8.1-1.2,10.8
					c-1.8,12.1-10.5,44.8-10.9,46.2l-3.3-0.3c0.1-0.3,0.4-33.3,4.2-47.5c0.6-2.2,0.6-5.4,0.9-9c0-0.2,0-0.3,0-0.5
					c0.9-14.5,1-35.7,1-35.9c0-2.5,2.1-4.6,4.6-4.6l0,0C335.3,220.7,338.8,222.9,338.8,225.5z"/>
				<path class="st38" d="M353.5,225.5c0,1.1-0.9,20.9-2.1,35.6v0.1c-0.4,4.3-0.7,8.1-1.2,10.9c-1.4,9.4-8.6,36.3-10.1,46l-3.4-0.7
					c0-27.7,2.6-39.1,4.2-45.6c0.6-2.3,0.3-6.7,0.2-10.4c0-0.1,0-0.2,0-0.4c-0.4-15.4,0.2-27.6,0.2-35c0.1-2.6,5.2-5.3,7.8-5.3
					C351.6,220.8,353.6,223,353.5,225.5z"/>
				<path class="st40" d="M337.3,160.9c-0.2,1-0.3,2.4-0.3,3.8c-1.9,0-3.8-0.5-5.4-1.2c0.1-1.7,0.3-3,0.3-3.3
					c0.2-1.5,1.6-2.5,3.1-2.3C336.5,158,337.5,159.4,337.3,160.9z"/>
				<path class="st38" d="M350.1,148.2c-1.2,7.8-5.3,15.3-13.1,15.3c-7.8,0-13.6-7-13.6-14.8s5.4-14.6,13.2-14.6
					C344.4,134.1,351.4,140.5,350.1,148.2z"/>
				<path class="st38" d="M360.2,215.1c-1.4-0.4-2.4,0.4-4.1-1.6c5-8.4,9.3-13,7.9-23.8c-0.9-7.6-12.8-21-14.1-22.5
					c-1-1.1-2.7-1.2-3.9-0.2c-1.1,1-1.2,2.7-0.2,3.9c4.6,5.2,12.2,15,12.8,19.5c1.5,12.1-6.7,22.5-6.8,22.6c0,0.1-0.1,0.1-0.1,0.2
					c-0.1,0.1-0.1,0.2-0.2,0.2c0,0.1-0.1,0.2-0.1,0.2c0,0.1-0.1,0.2-0.1,0.3s0,0.2-0.1,0.3c0,0.1,0,0.2,0,0.3s0,0.2,0,0.3
					s0,0.2,0,0.3s0,0.2,0,0.3s0,0.2,0.1,0.3c0,0.1,0.1,0.2,0.1,0.2c0,0.1,0.1,0.2,0.1,0.3s0.1,0.1,0.1,0.2c0.1,0.1,0.1,0.2,0.2,0.2
					c0.1,0.1,0.1,0.1,0.2,0.2c0,0.1,0.1,0.1,0.1,0.2l0.1,0.1l0,0l0,0c2.2,1.9,4,2.6,4.4,2.8c0.3,0.1,0.7,0.2,1,0.2
					c1.1,0,3.1-1,3.6-2C361.8,216.3,361.7,215.6,360.2,215.1z"/>
				<path class="st40" d="M338.8,225.5c0,1.1-0.5,20.8-1.4,35.5c0,0.2,0,0.3,0,0.5l-10.3,0.3c0-0.2,0-0.3,0-0.5
					c0.9-14.5,1-35.7,1-35.9c0-2.5,2.1-4.6,4.6-4.6l0,0C335.3,220.7,338.8,222.9,338.8,225.5z"/>
				<path class="st40" d="M353.5,225.5c0,1.1-0.9,20.9-2.1,35.6l-10.3,0.3c0-0.1,0-0.2,0-0.4c-0.4-15.4,0.2-27.6,0.2-35
					c0.1-2.6,5.2-5.3,7.8-5.3C351.6,220.8,353.6,223,353.5,225.5z"/>
				<path class="st15" d="M326.8,257.8c0,0-7.3-34,1.3-46.3h26.7c0,0-0.9,40.8-2.2,46.3H326.8z"/>
			</g>
			<g>
				<path class="st39" d="M354.7,209.9c0.1,1,0.1,1.5,0.1,1.5h-26.7c0-0.5,0.1-1,0.1-1.5c0-0.2,0-0.3,0-0.5c0.1-1.9,0-3.8-0.1-5.7
					c0-0.2,0-0.4,0-0.6c0-0.7-0.1-1.5-0.2-2.2c0-0.2,0-0.4-0.1-0.6c-0.2-1.8-0.4-3.7-0.7-5.6c0-0.2,0-0.3-0.1-0.5
					c-0.1-0.8-0.2-1.5-0.4-2.3c0-0.1,0-0.3-0.1-0.4c-0.3-1.9-0.7-3.9-1-5.8l0,0c-0.2-0.9-0.3-1.7-0.5-2.6c0-0.1,0-0.1,0-0.2
					c-0.4-1.8-0.7-3.7-1.1-5.4c0-0.3-0.1-0.5-0.2-0.8c-0.1-0.6-0.2-1.2-0.3-1.7c-0.1-0.4-0.1-0.7-0.2-1.1c-0.3-1.4-0.5-2.8-0.8-4.1
					c0-0.1,0-0.2,0-0.3c-0.1-0.7,0.1-1.3,0.4-1.9c0.5-0.9,1.5-1.5,2.7-1.5h21.2c1.1,0,2.2,0.6,2.7,1.5c0.2,0.2,0.3,0.5,0.3,0.8
					c0.1,0.4,0.2,0.8,0.3,1.2c0.2,1,0.5,2.2,0.7,3.5c0.5,0.2,1,0.4,1.5,0.7s1,0.8,1.4,1.2c0.4,0.5,0.7,1,1,1.6
					c0.1,0.3,0.2,0.6,0.3,1c0.1,0.5,0.2,1,0.2,1.4c0,1.4-0.5,2.8-1.3,3.8c0,0.1-0.1,0.2-0.2,0.2c-0.4,0.5-0.8,0.9-1.3,1.2
					c0,0.4,0.1,0.9,0.1,1.3c0,0,0,0,0,0.1c0.2,1.9,0.4,3.8,0.6,5.7c0,0.2,0,0.3,0,0.5c0.1,0.7,0.1,1.5,0.2,2.2c0,0.2,0,0.4,0.1,0.6
					c0.2,1.9,0.3,3.7,0.4,5.4c0,0.3,0.1,0.6,0.1,0.8c0,0.7,0.1,1.3,0.1,1.9c0,0.3,0.1,0.6,0.1,0.9c0.2,2.2,0.3,4,0.4,5.4
					C354.6,209.4,354.6,209.7,354.7,209.9z"/>
				<g>
					<path class="st43" d="M354.6,209.1c-8.8-0.2-17.6,0-26.4,0.4c0.1-1.9,0-3.8-0.1-5.8c0-0.2,0-0.4,0-0.6
						c8.7-0.4,17.4-0.5,26.1-0.3c0,0.3,0.1,0.6,0.1,0.9C354.4,205.9,354.5,207.7,354.6,209.1z"/>
					<path class="st43" d="M353.9,200.1c-8.7-0.2-17.4-0.2-26.1,0.2c-0.2-1.8-0.4-3.7-0.7-5.6c0-0.2,0-0.3-0.1-0.5
						c8.8-0.4,17.6-0.4,26.4-0.1c0,0.2,0,0.4,0.1,0.6C353.6,196.6,353.8,198.4,353.9,200.1z"/>
					<path class="st43" d="M353.2,191.4c-8.9-0.3-17.7-0.2-26.6,0.1c-0.3-1.9-0.7-3.9-1-5.8l0,0c9-0.3,18-0.3,27,0c0,0,0,0,0,0.1
						C352.8,187.6,353,189.5,353.2,191.4z"/>
					<path class="st43" d="M355.2,179.1c0,1.4-0.5,2.8-1.3,3.8c0,0.1-0.1,0.2-0.2,0.2c-9.5-0.4-19.1-0.4-28.6,0c0-0.1,0-0.1,0-0.2
						c-0.4-1.8-0.7-3.7-1.1-5.4c10.3-0.3,20.7-0.3,31.1,0.2C355.1,178.1,355.2,178.6,355.2,179.1z"/>
					<path class="st43" d="M353.8,175.1c-10.1-0.4-20.2-0.5-30.3-0.2c-0.1-0.4-0.1-0.7-0.2-1.1c-0.3-1.4-0.5-2.8-0.8-4.1
						c0-0.1,0-0.2,0-0.3c9.2-0.3,18.5-0.2,27.7,0.1c0.2,1,0.5,2.2,0.7,3.5c0.5,0.2,1,0.4,1.5,0.7
						C352.9,174.2,353.4,174.6,353.8,175.1z"/>
				</g>
			</g>
			<path class="st38" d="M330.3,215.8c0.1-0.1,0.1-0.2,0.1-0.3s0-0.1,0.1-0.2c0-0.1,0-0.2,0.1-0.3c0-0.1,0-0.1,0-0.2
				c0-0.1,0-0.2,0-0.4c0-0.1,0-0.1,0-0.2c0-0.1,0-0.2-0.1-0.3c0-0.1,0-0.1,0-0.2c0-0.1-0.1-0.2-0.1-0.3s-0.1-0.1-0.1-0.2
				c0-0.1-0.1-0.1-0.2-0.2c-0.1-0.1-0.1-0.2-0.2-0.2l0,0c-0.1-0.1-0.1-0.1-0.2-0.2c-0.1,0-0.1-0.1-0.2-0.2
				c-0.1-0.1-12.3-10.5-12.1-22.4c0.1-5.2,7.4-15.8,10-19.4c0.9-1.2,0.6-2.9-0.7-3.8c-1.2-0.9-2.9-0.6-3.8,0.7
				c-1,1.5-10,14.5-11,21.9c-1.4,11.1,9.6,20,14.1,24.4c-1.8,1.7-3.1,1.1-4.2,1.2c-1.5,0.2-1.6,1.3-1.3,2.8c0.2,1,0.5,1.5,0.9,2.1
				c0.9,1.2,2.4,0.6,2.7,0.4c1.3-0.7,3.1-1.6,5.2-3.5l0,0l0.1-0.1c0.1-0.1,0.2-0.2,0.2-0.3c0,0,0,0,0.1-0.1l0,0
				c0.1-0.1,0.1-0.2,0.2-0.3C330.3,215.9,330.3,215.9,330.3,215.8z"/>
			<path class="st37" d="M329.3,141.7c5.7,3.3,19.1,2.4,21.5,6.5c0,0,4-11-10.3-16.2C327.3,127.4,321.4,137.1,329.3,141.7z"/>
			<path class="st37" d="M330,135.8c3.7,1.3-1.6,13.4-7.6,13.4C319.9,149.1,319.6,132.1,330,135.8z"/>
			<path class="st38" d="M321,150.7c0,1.4,0.6,2.6,1.6,3.5c1.2,1,2.9,0.1,2.9-1.4v-4.1c0-1.5-1.8-2.4-2.9-1.4
				C321.6,148.1,321,149.3,321,150.7z"/>
			<polygon class="st44" points="330.9,254.4 330.3,254 350.1,218 350.8,218.4 			"/>
			<polygon class="st44" points="340.9,254.4 340.2,254.1 350.9,222.8 351.6,223 			"/>
			<path class="st28" d="M328.6,166.1l0.2,0.3c0.7,0.9,1.6,1.8,2.6,2.7c2.2,1.7,4.8,2.7,6.9,2.7c1.2,0,2.2-0.3,2.8-0.9
				c1.1-1,1.1-2.8,0-4.7h-12.5V166.1z"/>
			<path class="st38" d="M329.6,166.1c0.6,0.8,1.4,1.6,2.4,2.4c3.1,2.4,6.9,3.1,8.4,1.7c0.9-0.9,0.8-2.4-0.2-4.1L329.6,166.1
				L329.6,166.1z"/>
			<path class="st43" d="M325.6,317.5c0.2,0,0.4,0.1,0.6,0.3c1.2,1,2.5,2.3,4.7,2.8c1.9,0.5,1.2,1.4-0.7,1.4c-2.8,0-3.9-0.1-5.2-0.1
				c-1.2,0-0.4,0.1-3.5,0.1c-1.4,0-0.9-2.7-0.2-4.4c0.2-0.5,0.6-0.7,1.1-0.6L325.6,317.5z"/>
			<path class="st43" d="M340.3,317.5c0.2,0,0.4,0.1,0.6,0.3c1.2,1,4.8,2.7,6.6,3c2,0.3,2.1,1.3-0.7,1.3c-2.8,0-4.8-0.2-6.1-0.2
				c-1.2,0-0.9,0.2-4,0.2c-2.4,0-1.6-3-0.8-4.4c0.3-0.4,0.6-0.7,1.1-0.6L340.3,317.5z"/>
		</g>
	</g>
</g>
</svg>
